<svg xmlns="http://www.w3.org/2000/svg" viewBox="0 0 56 56"><defs><style>.cls-4{fill:#fff}</style></defs><g><g><circle cx="28" cy="28" r="25.5" fill="none" stroke="#fcfcfc" stroke-linecap="round" stroke-linejoin="round" stroke-width="5"/><circle cx="28" cy="28" r="25.5" fill="#f67d28"/><path fill="none" stroke="#fff" stroke-linecap="round" stroke-linejoin="round" stroke-width="4" d="M28 16.2v11.88m0 0V40m0-11.88h11.89M28 28.08H16.13"/><path d="M27.37 12.09l-5 5a.91.91 0 00.63 1.52h10a.9.9 0 00.64-1.54l-5-5a.91.91 0 00-1.27.02zM28.63 43.91l5-5a.91.91 0 00-.63-1.52H23a.9.9 0 00-.64 1.54l5 5a.91.91 0 001.27-.02zM11.64 28.7l5 5a.91.91 0 001.54-.64v-9.95a.9.9 0 00-1.54-.64l-5 5a.9.9 0 000 1.23zM44.36 27.45l-5-5a.9.9 0 00-1.54.64v9.94a.91.91 0 001.54.64l5-5a.91.91 0 000-1.22z" class="cls-4"/></g></g></svg>