<svg xmlns="http://www.w3.org/2000/svg" viewBox="0 0 56 56"><defs><style>.cls-3{fill:#fff}</style></defs><g><g><circle cx="28" cy="28" r="25.5" fill="none" stroke="#fcfcfc" stroke-linecap="round" stroke-linejoin="round" stroke-width="5"/><circle cx="28" cy="28" r="25.5" fill="#5666ff"/><path d="M28.3 41.77a15.73 15.73 0 003.59-.3 23.09 23.09 0 007.79-2.1 2 2 0 001.19-1.49c.6-3.3-1.79-7.19-5.08-8.38a5.11 5.11 0 00-3 0 10.17 10.17 0 01-9.27 0 2.73 2.73 0 00-3 0 8.91 8.91 0 00-5.38 7.18c-.3 2.09 0 2.39 1.79 3a28.42 28.42 0 0011.37 2.1z" class="cls-3"/><ellipse cx="28" cy="21.12" class="cls-3" rx="7.18" ry="6.88"/></g></g></svg>