<svg xmlns="http://www.w3.org/2000/svg" viewBox="0 0 51.06 62.43"><defs><style>.cls-1{fill:#c55b51}.cls-2{fill:#fff}.cls-3{fill:#13bbe1}</style></defs><g><g><path d="M37.46 34.38a33.69 33.69 0 01-10.11-2.18c-3.11-1-6.05-2-9.3-2h-.73a27.27 27.27 0 00-9.43 2.64 1.24 1.24 0 01-.56.13 1.28 1.28 0 01-.66-.18 1.25 1.25 0 01-.59-1.07c0-5.36-.17-24.65-.17-24.85a1.27 1.27 0 01.53-1 20 20 0 0111.75-3.54 25.94 25.94 0 012.81.15 25.11 25.11 0 017.73 2.44 23 23 0 008.07 2.41h.58c4.67 0 9.57-3.33 10.51-4a1.24 1.24 0 011.29-.09 1.24 1.24 0 01.68 1.11v26.28a1.24 1.24 0 01-.64 1.09 20.64 20.64 0 01-11.05 2.66z" class="cls-1"/><path d="M18.19 3.58c.91 0 1.79.06 2.63.14 5.76.6 9.56 4.45 15.85 4.85h.66c4.79 0 9.75-3.17 11.23-4.23v26.29a19.43 19.43 0 01-10.44 2.5h-.64C30.42 33 24.91 29 18.05 29h-.79a28.53 28.53 0 00-9.93 2.77c0-5.43-.17-24.86-.17-24.86a18.85 18.85 0 0111-3.3m0-2.5A21.23 21.23 0 005.72 4.84 2.48 2.48 0 004.66 6.9c0 .2.17 19.48.17 24.84A2.49 2.49 0 006 33.87a2.45 2.45 0 001.31.37A2.54 2.54 0 008.46 34a25.89 25.89 0 018.92-2.5h.67c3.05 0 5.9.94 8.91 1.94a34.49 34.49 0 0010.47 2.24h.69c5.83 0 9.05-1.35 11.66-2.82a2.49 2.49 0 001.28-2.18V4.36a2.49 2.49 0 00-4-2c-.54.38-5.4 3.76-9.78 3.76h-.5a21.56 21.56 0 01-7.64-2.31 26.06 26.06 0 00-8.11-2.53 28.62 28.62 0 00-2.89-.16z" class="cls-2"/><path d="M4.5 61.18a3.26 3.26 0 01-3.25-3.25V4.5a3.25 3.25 0 016.5 0v53.43a3.26 3.26 0 01-3.25 3.25z" class="cls-1"/><path d="M4.5 2.5a2 2 0 012 2v53.43a2 2 0 01-4 0V4.5a2 2 0 012-2m0-2.5A4.51 4.51 0 000 4.5v53.43a4.5 4.5 0 009 0V4.5A4.51 4.51 0 004.5 0z" class="cls-2"/><path d="M7.16 6.88a19.75 19.75 0 0113.66-3.16c5.76.6 9.56 4.45 15.85 4.85 5 .32 10.34-3.1 11.89-4.21v26.27c-2.77 1.55-5.74 2.59-11.08 2.5-7.33-.13-13-4.49-20.22-4.16a28.53 28.53 0 00-9.93 2.77c0-5.43-.17-24.86-.17-24.86zM4.5 59.93a2 2 0 01-2-2V4.5a2 2 0 014 0v53.43a2 2 0 01-2 2z" class="cls-3"/></g></g></svg>