<svg xmlns="http://www.w3.org/2000/svg" viewBox="0 0 56 56"><g><g><circle cx="28" cy="28" r="25.5" fill="none" stroke="#fcfcfc" stroke-linecap="round" stroke-linejoin="round" stroke-width="5"/><circle cx="28" cy="28" r="25.5" fill="#93989d"/><path fill="#fff" d="M28.56 15.82l3.58 7.24a.63.63 0 00.47.35l8 1.16a.63.63 0 01.39 1.07l-5.78 5.64a.6.6 0 00-.18.55l1.36 8a.62.62 0 01-.91.66l-7.2-3.79a.6.6 0 00-.58 0l-7.15 3.75a.62.62 0 01-.91-.66l1.36-8a.6.6 0 00-.18-.55l-5.78-5.64a.63.63 0 01.35-1.07l8-1.16a.63.63 0 00.47-.35l3.58-7.24a.63.63 0 011.11.04z"/></g></g></svg>