<svg xmlns="http://www.w3.org/2000/svg" viewBox="0 0 31.5 55.3"><switch><g><path fill="#fff" stroke="#fff" stroke-miterlimit="10" stroke-width="5" d="M16.1 46H16c-1.9 0-3.4 1.5-3.4 3.4h0c0 1.9 1.5 3.4 3.3 3.4 0 0 0 0 0 0h.1c1.9 0 3.4-1.5 3.4-3.4S18 46 16.1 46h0zm0 5.8H16c-1.3 0-2.4-1.1-2.4-2.4h0c0-1.3 1.1-2.4 2.4-2.4h.1c1.3 0 2.4 1.1 2.4 2.4s-1 2.4-2.4 2.4h0zM15.6 2.5c-6.1-.2-11.5 4-13 9.9-.3 1.6.7 3.2 2.3 3.6.2 0 .4.1.6.1 1.4 0 2.6-1 2.9-2.3C9.1 10.4 12 8 15.5 8c4.1 0 7.4 3.3 7.5 7.4.1 2.3-.8 3.8-2.2 5.7l-5.6 8c-1.5 1.9-2.3 4.3-2.2 6.7v.3c.2 1.6 1.8 2.8 3.4 2.5 1.3-.2 2.4-1.2 2.5-2.5v-.2c0-1.3.4-2.6 1.1-3.7l5.6-8.1h0c1.9-2.8 3.2-5.3 3.2-8.6.2-7.4-5.6-13-13.2-13zm9.4 21l-5.6 8.1c-.8 1.3-1.3 2.8-1.3 4.3v.2c-.2 1.1-1.2 1.8-2.3 1.6-.8-.1-1.5-.8-1.6-1.6v-.3c-.1-2.2.6-4.4 2-6.2l5.6-8c1.4-2.1 2.4-3.8 2.4-6.3-.1-4.6-3.8-8.3-8.4-8.4h-.1c-3.9 0-7.3 2.8-8.1 6.6C7.1 14.6 6 15.2 5 15c-.4-.1-.8-.3-1-.7-.4-.5-.5-1.1-.4-1.6C5 7.2 10 3.4 15.7 3.5c7.2 0 12.3 5 12.3 12 0 3-1.2 5.4-3 8h0z"/><path fill="#ff8891" d="M16.1 46H16c-1.9 0-3.4 1.5-3.4 3.4s1.5 3.4 3.3 3.4h.1c1.9 0 3.4-1.5 3.4-3.4S18 46 16.1 46z"/><path fill="#ff4f65" d="M15.6 2.5c-6.1-.2-11.5 4-13 9.9-.3 1.6.7 3.2 2.3 3.6.2 0 .4.1.6.1 1.4 0 2.6-1 2.9-2.3C9.1 10.4 12 8 15.5 8c4.1 0 7.4 3.3 7.5 7.4.1 2.3-.8 3.8-2.2 5.7l-5.6 8c-1.5 1.9-2.3 4.3-2.2 6.7v.3c.2 1.6 1.8 2.8 3.4 2.5 1.3-.2 2.4-1.2 2.5-2.5v-.2c0-1.3.4-2.6 1.1-3.7l5.6-8.1c1.9-2.8 3.2-5.3 3.2-8.6.2-7.4-5.6-13-13.2-13z"/></g></switch></svg>