<svg xmlns="http://www.w3.org/2000/svg" viewBox="0 0 53.37 53.37"><defs><style>.cls-1{fill:none;stroke:#fcfcfc;stroke-linecap:round;stroke-linejoin:round;stroke-width:5px}</style></defs><g><g><path d="M49.69 33.71l-16 16a4 4 0 01-5.65 0L5.31 27a4.07 4.07 0 01-1.15-2.5L2.52 6.87a4 4 0 014.35-4.35L24.5 4.16A4.07 4.07 0 0127 5.31l22.69 22.75a4 4 0 010 5.65z" class="cls-1"/><circle cx="14.44" cy="14.81" r="4.9" class="cls-1"/><path fill="#ffba00" d="M49.69 33.71l-16 16a4 4 0 01-5.65 0L5.31 27a4.07 4.07 0 01-1.15-2.5L2.52 6.87a4 4 0 014.35-4.35L24.5 4.16A4.07 4.07 0 0127 5.31l22.69 22.75a4 4 0 010 5.65z"/><circle cx="14.44" cy="14.81" r="4.9" fill="none" stroke="#fff" stroke-miterlimit="10" stroke-width="3"/></g></g></svg>