<svg xmlns="http://www.w3.org/2000/svg" viewBox="0 0 56.05 58.52"><defs><style>.cls-1,.cls-3{fill:none}.cls-1{stroke:#fcfcfc;stroke-width:5px}.cls-1,.cls-3{stroke-linecap:round}.cls-1{stroke-linejoin:round}.cls-2{fill:#ffdd3c}.cls-3{stroke:#ffba00;stroke-miterlimit:10;stroke-width:4.23px}</style></defs><g><g><rect width="18.43" height="23.7" x="4.36" y="5.82" class="cls-1" rx="9.22" transform="rotate(-45 13.581 17.675)"/><rect width="18.43" height="23.7" x="33.26" y="5.82" class="cls-1" rx="9.22" transform="rotate(-135 42.478 17.67)"/><path d="M10.72 56a2.06 2.06 0 01-1.49-.62 2.11 2.11 0 010-3L15 46.62a2.11 2.11 0 113 3l-5.78 5.78a2.1 2.1 0 01-1.5.6zM32 6.73h-8.2a2.12 2.12 0 010-4.23H32a2.12 2.12 0 010 4.23z" class="cls-1"/><path d="M25.77 4.61H30v7.31h-4.23zM45.33 56a2.06 2.06 0 01-1.49-.62l-5.79-5.79a2.11 2.11 0 013-3l5.79 5.79A2.11 2.11 0 0145.33 56z" class="cls-1"/><circle cx="28.03" cy="32.08" r="23.48" class="cls-1"/><path d="M28 34.2H18a2.12 2.12 0 110-4.23h7.83v-12.3a2.12 2.12 0 114.23 0v14.41A2.12 2.12 0 0128 34.2z" class="cls-1"/><rect width="18.43" height="23.7" x="4.36" y="5.82" class="cls-2" rx="9.22" transform="rotate(-45 13.581 17.675)"/><rect width="18.43" height="23.7" x="33.26" y="5.82" class="cls-2" rx="9.22" transform="rotate(-135 42.478 17.67)"/><path d="M10.72 53.91l5.79-5.79M23.78 4.61h8.2" class="cls-3"/><path fill="none" stroke="#ffba00" stroke-miterlimit="10" stroke-width="4.23" d="M27.88 11.93V4.61"/><path d="M45.33 53.91l-5.79-5.79" class="cls-3"/><circle cx="28.03" cy="32.08" r="23.48" fill="#ffba00"/><path fill="none" stroke="#fff" stroke-linecap="round" stroke-linejoin="round" stroke-width="4.23" d="M28.03 17.67v14.41h-9.95"/></g></g></svg>