<svg xmlns="http://www.w3.org/2000/svg" xmlns:xlink="http://www.w3.org/1999/xlink" viewBox="0 0 46.6 55"><switch><g><path fill="none" stroke="#fafafa" stroke-linecap="round" stroke-linejoin="round" stroke-width="5" d="M40.4 29.8c-.5-2.2-1.3-4.2-2.5-6.1l-.3-.3c.6 3.3-.2 6.7-2.1 9.5-.7 1-1.6 1.7-2.6 2.2.3-.8.6-1.6.8-2.4.6-2.1.8-4.3.6-6.4-.5-5.6-2.6-10.9-6.2-15.2-2.3-3.1-5.3-5.6-8.7-7.2-1.5-.8-3.2-1.2-4.8-1.4-.1 0-.2-.1-.2-.1h-1c1 .8 1.9 1.6 2.8 2.5 1.9 2.1 3.2 4.6 3.7 7.4.8 4.2-.2 8.5-2.9 11.8l-.3.3c.4-4.3-.1-8.3-3.1-11.5h-.1c.1.5.1 1 .2 1.5.4 2.4-.2 4.9-1.7 6.9-1.3 2-2.7 3.8-4.1 5.6-1.5 1.9-2.5 4.2-3 6.6-.1.5-.2 1.1-.3 1.7v2.3c.2 1 .3 2 .6 3 1.3 4.4 4.5 8 8.6 9.9 2.2 1.1 4.6 1.8 7.1 2 .1 0 .2 0 .3.1h2.4c1-.2 1.9-.3 2.8-.5 2.8-.7 5.4-2 7.5-3.9 2.8-2.4 4.9-5.5 6-9 .3-1.2.6-2.5.8-3.8 0-.1.1-.2.1-.3v-2.4c-.1-1.1-.2-1.9-.4-2.8z"/><path fill="#ff4f65" d="M40.4 29.8c-.5-2.2-1.3-4.2-2.5-6.1l-.3-.3c.6 3.3-.2 6.7-2.1 9.5-.7 1-1.6 1.7-2.6 2.2.3-.8.6-1.6.8-2.4.6-2.1.8-4.3.6-6.4-.5-5.6-2.6-10.9-6.2-15.2-2.3-3.1-5.3-5.6-8.7-7.2-1.5-.8-3.2-1.2-4.8-1.4-.1 0-.2-.1-.2-.1h-1c1 .8 1.9 1.6 2.8 2.5 1.9 2.1 3.2 4.6 3.7 7.4.8 4.2-.2 8.5-2.9 11.8l-.3.3c.4-4.3-.1-8.3-3.1-11.5h-.1c.1.5.1 1 .2 1.5.4 2.4-.2 4.9-1.7 6.9-1.3 2-2.7 3.8-4.1 5.6-1.5 1.9-2.5 4.2-3 6.6-.1.5-.2 1.1-.3 1.7v2.3c.2 1 .3 2 .6 3 1.3 4.4 4.5 8 8.6 9.9 2.2 1.1 4.6 1.8 7.1 2 .1 0 .2 0 .3.1h2.4c1-.2 1.9-.3 2.8-.5 2.8-.7 5.4-2 7.5-3.9 2.8-2.4 4.9-5.5 6-9 .3-1.2.6-2.5.8-3.8 0-.1.1-.2.1-.3v-2.4c-.1-1.1-.2-1.9-.4-2.8z"/><defs><path d="M40.4 29.8c-.5-2.2-1.3-4.2-2.5-6.1l-.3-.3c.6 3.3-.2 6.7-2.1 9.5-.7 1-1.6 1.7-2.6 2.2.3-.8.6-1.6.8-2.4.6-2.1.8-4.3.6-6.4-.5-5.6-2.6-10.9-6.2-15.2-2.3-3.1-5.3-5.6-8.7-7.2-1.5-.8-3.2-1.2-4.8-1.4-.1 0-.2-.1-.2-.1h-1c1 .8 1.9 1.6 2.8 2.5 1.9 2.1 3.2 4.6 3.7 7.4.8 4.2-.2 8.5-2.9 11.8l-.3.3c.4-4.3-.1-8.3-3.1-11.5h-.1c.1.5.1 1 .2 1.5.4 2.4-.2 4.9-1.7 6.9-1.3 2-2.7 3.8-4.1 5.6-1.5 1.9-2.5 4.2-3 6.6-.1.5-.2 1.1-.3 1.7v2.3c.2 1 .3 2 .6 3 1.3 4.4 4.5 8 8.6 9.9 2.2 1.1 4.6 1.8 7.1 2 .1 0 .2 0 .3.1h2.4c1-.2 1.9-.3 2.8-.5 2.8-.7 5.4-2 7.5-3.9 2.8-2.4 4.9-5.5 6-9 .3-1.2.6-2.5.8-3.8 0-.1.1-.2.1-.3v-2.4c-.1-1.1-.2-1.9-.4-2.8z"/></defs><clipPath id="b"><use overflow="visible" xlink:href="#a"/></clipPath><g clip-path="url(#b)"><path fill="#ff899c" d="M0-2.7l46.6 42.8-8.2-52z"/></g></g></switch></svg>