<svg xmlns="http://www.w3.org/2000/svg" viewBox="0 0 54.35 52.35"><defs><style>.cls-1{fill:none;stroke:#fcfcfc;stroke-linecap:round;stroke-linejoin:round;stroke-width:5px}</style></defs><g><g><path d="M30.69 4.35l5.85 8.54a4.24 4.24 0 002.31 1.68l9.94 2.93A4.27 4.27 0 0151 24.19l-6.36 8.21a4.26 4.26 0 00-.88 2.71l.29 10.35a4.27 4.27 0 01-5.69 4.14l-9.76-3.47a4.25 4.25 0 00-2.86 0L16 49.6a4.27 4.27 0 01-5.69-4.14l.28-10.35a4.2 4.2 0 00-.89-2.71l-6.31-8.21a4.26 4.26 0 012.17-6.69l9.93-2.93a4.21 4.21 0 002.31-1.68l5.86-8.54a4.26 4.26 0 017.03 0z" class="cls-1"/><path d="M26.1 46a3.77 3.77 0 012.5.11l9.76 3.46A4.25 4.25 0 0044 45.46l-.28-10.35a4.15 4.15 0 01.89-2.71S40.08 41.12 26.1 46zM28.45 18.25l2.12 3.1a1.55 1.55 0 00.84.61L35 23a1.55 1.55 0 01.79 2.43l-2.29 3a1.6 1.6 0 00-.33 1l.11 3.76a1.55 1.55 0 01-2.07 1.5l-3.54-1.26a1.55 1.55 0 00-1 0l-3.54 1.26a1.55 1.55 0 01-2.06-1.5l.1-3.76a1.53 1.53 0 00-.32-1l-2.29-3a1.54 1.54 0 01.77-2.43l3.6-1a1.52 1.52 0 00.84-.61l2.13-3.1a1.54 1.54 0 012.55-.04z" class="cls-1"/><path fill="#ffba00" d="M30.69 4.35l5.85 8.54a4.24 4.24 0 002.31 1.68l9.94 2.93A4.27 4.27 0 0151 24.19l-6.36 8.21a4.26 4.26 0 00-.88 2.71l.29 10.35a4.27 4.27 0 01-5.69 4.14l-9.76-3.47a4.25 4.25 0 00-2.86 0L16 49.6a4.27 4.27 0 01-5.69-4.14l.28-10.35a4.2 4.2 0 00-.89-2.71l-6.31-8.21a4.26 4.26 0 012.17-6.69l9.93-2.93a4.21 4.21 0 002.31-1.68l5.86-8.54a4.26 4.26 0 017.03 0z"/><path fill="#ffdd3c" d="M26.1 46a3.77 3.77 0 012.5.11l9.76 3.46A4.25 4.25 0 0044 45.46l-.28-10.35a4.15 4.15 0 01.89-2.71S40.08 41.12 26.1 46z"/><path fill="#fdfdfd" d="M28.45 18.25l2.12 3.1a1.55 1.55 0 00.84.61L35 23a1.55 1.55 0 01.79 2.43l-2.29 3a1.6 1.6 0 00-.33 1l.11 3.76a1.55 1.55 0 01-2.07 1.5l-3.54-1.26a1.55 1.55 0 00-1 0l-3.54 1.26a1.55 1.55 0 01-2.06-1.5l.1-3.76a1.53 1.53 0 00-.32-1l-2.29-3a1.54 1.54 0 01.77-2.43l3.6-1a1.52 1.52 0 00.84-.61l2.13-3.1a1.54 1.54 0 012.55-.04z"/></g></g></svg>