<svg xmlns="http://www.w3.org/2000/svg" viewBox="0 0 50.9 51.1"><switch><g><path fill="none" stroke="#fcfcfc" stroke-linecap="round" stroke-linejoin="round" stroke-width="5" d="M5.5 28.8V5.5M5.5 2.5c-1.7 0-3 1.3-3 3v23.3c0 1.7 1.3 3 3 3s3-1.3 3-3V5.5c0-1.7-1.3-3-3-3zM48.3 27.1L44.1 6.2c-.4-2.1-2.2-3.5-4.3-3.5H15.9c-2.4 0-4.4 2-4.4 4.4 0 0 0 0 0 0v23.5c0 1.2.5 2.3 1.3 3.2 3.1 3.2 3.4 9.2 3.6 12.7.2 3.6 11.2 5.2 10.6-14h17c2.4 0 4.4-2 4.4-4.5 0-.3-.1-.6-.1-.9z"/><path fill="none" stroke="#ff899c" stroke-linecap="round" stroke-linejoin="round" stroke-width="6" d="M5.5 28.8V5.5"/><path fill="#ff4661" d="M48.3 27.1L44.1 6.2c-.4-2.1-2.2-3.5-4.3-3.5H15.9c-2.4 0-4.4 2-4.4 4.4v23.5c0 1.2.5 2.3 1.3 3.2 3.1 3.2 3.4 9.2 3.6 12.7.2 3.6 11.2 5.2 10.6-14h17c2.4 0 4.4-2 4.4-4.5 0-.3-.1-.6-.1-.9z"/></g></switch></svg>