<svg xmlns="http://www.w3.org/2000/svg" xmlns:xlink="http://www.w3.org/1999/xlink" viewBox="0 0 54 50"><switch><g><path fill="none" stroke="#fafafa" stroke-linecap="round" stroke-linejoin="round" stroke-width="5" d="M49.3 15h0l-6.5-5.6h0l-6.5-5.7h0c-.5-.4-1.1-.7-1.8-.7-.4 0-.9.1-1.2.3-.9.4-1.3 1.3-1.2 2.2v2.7c0 .4-.2.8-.5 1l-10.7 8c-1 .8-2.3 1.2-3.5 1.2l-5.2.3c-.7 0-1.4.3-2 .7-.4.3-.7.7-.7 1.2s.2 1.1.6 1.4h0l7 6L2.4 44.6l-.1.1.1-.1 19-12.6 6.9 6.1h0c.4.3.9.5 1.4.5h.2c.5 0 1-.3 1.4-.7.5-.4.8-1.1.8-1.7l.3-4.6c.1-1.2.6-2.3 1.4-3.1l9.1-9.4c.3-.3.7-.5 1.2-.5h3.4c.9.1 1.8-.3 2.3-1 .6-.7.3-1.9-.5-2.6z"/><path fill="#3eabfd" d="M49.3 15l-6.5-5.6-6.5-5.7c-.5-.4-1.1-.7-1.8-.7-.4 0-.9.1-1.2.3-.9.4-1.3 1.3-1.2 2.2v2.7c0 .4-.2.8-.5 1l-10.7 8c-1 .8-2.3 1.2-3.5 1.2l-5.2.3c-.7 0-1.4.3-2 .7-.4.3-.7.7-.7 1.2s.2 1.1.6 1.4l7 6L2.4 44.6l-.1.1.1-.1 19-12.6 6.9 6.1c.4.3.9.5 1.4.5h.2c.5 0 1-.3 1.4-.7.5-.4.8-1.1.8-1.7l.3-4.6c.1-1.2.6-2.3 1.4-3.1l9.1-9.4c.3-.3.7-.5 1.2-.5h3.4c.9.1 1.8-.3 2.3-1 .6-.7.3-1.9-.5-2.6z"/><defs><path d="M49.3 15l-6.5-5.6-6.5-5.7c-.5-.4-1.1-.7-1.8-.7-.4 0-.9.1-1.2.3-.9.4-1.3 1.3-1.2 2.2v2.7c0 .4-.2.8-.5 1l-10.7 8c-1 .8-2.3 1.2-3.5 1.2l-5.2.3c-.7 0-1.4.3-2 .7-.4.3-.7.7-.7 1.2s.2 1.1.6 1.4l7 6L2.4 44.6l-.1.1.1-.1 19-12.6 6.9 6.1c.4.3.9.5 1.4.5h.2c.5 0 1-.3 1.4-.7.5-.4.8-1.1.8-1.7l.3-4.6c.1-1.2.6-2.3 1.4-3.1l9.1-9.4c.3-.3.7-.5 1.2-.5h3.4c.9.1 1.8-.3 2.3-1 .6-.7.3-1.9-.5-2.6z"/></defs><clipPath id="b"><use overflow="visible" xlink:href="#a"/></clipPath><g clip-path="url(#b)"><path fill="#63bafd" d="M21.3-15.3s12.6 43.9 28.3 44.1S74.2-2.7 74.2-2.7L21.3-15.3z"/></g></g></switch></svg>