<svg xmlns="http://www.w3.org/2000/svg" viewBox="0 0 59.47 45.53"><defs><style>.cls-1{fill:none;stroke:#fcfcfc;stroke-linecap:round;stroke-linejoin:round;stroke-width:5px}.cls-2{fill:#3eabfd}.cls-3{fill:#fff}</style></defs><g><g><circle cx="17.9" cy="27.63" r="15.4" class="cls-1"/><circle cx="29.9" cy="17.9" r="15.4" class="cls-1"/><circle cx="44.41" cy="30.47" r="12.57" class="cls-1"/><path d="M17.9 33.3h27.4v9.73H17.9zM22.38 30l6.39-7.28a1.29 1.29 0 011.93 0L37.09 30a1.28 1.28 0 01-1 2.13H23.35a1.29 1.29 0 01-.97-2.13z" class="cls-1"/><path d="M26.63 31.69h6.21v11.24h-6.21z" class="cls-1"/><circle cx="17.9" cy="27.63" r="15.4" class="cls-2"/><circle cx="29.9" cy="17.9" r="15.4" class="cls-2"/><circle cx="44.41" cy="30.47" r="12.57" class="cls-2"/><path d="M17.9 33.3h27.4v9.73H17.9z" class="cls-2"/><path d="M22.38 30l6.39-7.28a1.29 1.29 0 011.93 0L37.09 30a1.28 1.28 0 01-1 2.13H23.35a1.29 1.29 0 01-.97-2.13z" class="cls-3"/><path d="M26.63 31.69h6.21v11.24h-6.21z" class="cls-3"/></g></g></svg>