<svg xmlns="http://www.w3.org/2000/svg" viewBox="0 0 56.9 56.9"><g><g><circle cx="28.45" cy="28.45" r="25.73" fill="none" stroke="#fcfcfc" stroke-linecap="round" stroke-linejoin="round" stroke-width="5.44"/><circle cx="28.45" cy="28.45" r="25.73" fill="#ffba00"/><path fill="#fcfcfc" d="M31.13 26.78c-1.2-.5-5.59-1.2-5.59-3.12 0-1.42 1.64-1.82 2.63-1.82a3.82 3.82 0 012.54.85 2.11 2.11 0 01.63.94c.15.41.24.85.8.85h2.94c.68 0 .86-.12.86-.88 0-3.24-2.54-5.07-5.44-5.7v-2.52c0-.57-.18-.91-.87-.91H27.3c-.69 0-.87.34-.87.91v2.42c-3.11.6-5.71 2.56-5.71 6.08 0 4 2.78 5.26 5.8 6.27 2.55.85 5.2.88 5.2 2.65s-1.31 2.14-2.92 2.14a3.86 3.86 0 01-2.94-1 2.22 2.22 0 01-.56-1.29c-.06-.79-.39-.88-1.08-.88h-2.9c-.69 0-.87.15-.87.88 0 3.59 2.87 5.76 6 6.46v2.45c0 .57.18.92.87.92h2.33c.69 0 .87-.35.87-.92v-2.43c3.53-.54 6-2.68 6-6.46 0-4.28-3.17-5.2-5.32-5.89"/></g></g></svg>