<svg xmlns="http://www.w3.org/2000/svg" viewBox="0 0 59.3 52.54"><defs><style>.cls-1,.cls-4{fill:none}.cls-1{stroke:#fff;stroke-width:5px}.cls-1,.cls-3,.cls-4{stroke-linecap:round;stroke-linejoin:round}.cls-4{stroke-width:3px}.cls-3{fill:#00baff;stroke:#00baff;stroke-width:2px}.cls-4{stroke:#fdfdfd}</style></defs><g><g><path d="M56.48 10.58A1.5 1.5 0 0055.3 10H11.43l-1.6-6.36a.29.29 0 000-.1 1 1 0 00-.06-.16l-.07-.13a.75.75 0 00-.07-.12L9.5 3l-.09-.09-.12-.11-.1-.07L9 2.66l-.11-.05-.17-.06H4a1.5 1.5 0 000 3h3.21l1.59 6.32 6.26 25A1.49 1.49 0 0016.51 38h32.54a1.51 1.51 0 001.45-1.1l6.26-25a1.5 1.5 0 00-.28-1.32zM16.51 40.54a4.75 4.75 0 104.76 4.75 4.75 4.75 0 00-4.76-4.75zM49.05 40.54a4.75 4.75 0 104.75 4.75 4.76 4.76 0 00-4.75-4.75z" class="cls-1"/><path fill="#3eabfd" stroke="#3eabfd" stroke-linecap="round" stroke-linejoin="round" stroke-width="3" d="M8.38 4l1.88 7.51m0 0l6.25 25h32.54l6.25-25z"/><circle cx="16.51" cy="45.29" r="3.75" class="cls-3"/><circle cx="49.05" cy="45.29" r="3.75" class="cls-3"/><path d="M27.77 24h10M32.78 29V19" class="cls-4"/><path fill="#fff" stroke="#3eabfd" stroke-linecap="round" stroke-linejoin="round" stroke-width="3" d="M4 4h4.38"/></g></g></svg>