<svg xmlns="http://www.w3.org/2000/svg" viewBox="0 0 50.89 46.64"><defs><style>.cls-1{fill:none;stroke-linecap:round;stroke-linejoin:round;stroke:#fcfcfc;stroke-width:5px}.cls-3{fill:#3eabfd}</style></defs><g><g><path d="M46.79 44.14H27.58a1.6 1.6 0 01-1.3-2.53L35.88 28a1.59 1.59 0 012.61 0l9.6 13.59a1.6 1.6 0 01-1.3 2.55z" class="cls-1"/><path d="M32.57 44.14H4.1a1.6 1.6 0 01-1.3-2.53L17 21.46a1.6 1.6 0 012.61 0l14.26 20.15a1.6 1.6 0 01-1.3 2.53z" class="cls-1"/><path d="M18.23 25.27a1.2 1.2 0 01-1.2-1.2V3.77a1.2 1.2 0 112.4 0v20.3a1.2 1.2 0 01-1.2 1.2z" class="cls-1"/><path d="M31.42 12.19H19.08a.85.85 0 01-.85-.85V2.5h13.19a.85.85 0 01.64 1.41l-2.54 2.87a.87.87 0 000 1.13l2.54 2.87a.85.85 0 01-.64 1.41z" class="cls-1"/><path fill="#63bafd" d="M46.79 44.14H27.58a1.6 1.6 0 01-1.3-2.53L35.88 28a1.59 1.59 0 012.61 0l9.6 13.59a1.6 1.6 0 01-1.3 2.55z"/><path d="M32.57 44.14H4.1a1.6 1.6 0 01-1.3-2.53L17 21.46a1.6 1.6 0 012.61 0l14.26 20.15a1.6 1.6 0 01-1.3 2.53z" class="cls-3"/><path fill="none" stroke="#3eabfd" stroke-linecap="round" stroke-linejoin="round" stroke-width="2.4" d="M18.23 24.07V3.77"/><path d="M31.42 12.19H19.08a.85.85 0 01-.85-.85V2.5h13.19a.85.85 0 01.64 1.41l-2.54 2.87a.87.87 0 000 1.13l2.54 2.87a.85.85 0 01-.64 1.41z" class="cls-3"/></g></g></svg>