<svg xmlns="http://www.w3.org/2000/svg" xmlns:xlink="http://www.w3.org/1999/xlink" viewBox="0 0 56 56"><switch><g><path fill="none" stroke="#fff" stroke-linecap="round" stroke-linejoin="round" stroke-width="5" d="M34.2 29.9l12.5-12.5c1.5-1.5 1.5-4 0-5.6s-4-1.5-5.6 0h0L28.6 24.3 16.1 11.8c-1.5-1.5-4-1.5-5.6 0-1.5 1.5-1.5 4 0 5.6L23 29.9 10.6 42.4c-1.5 1.5-1.5 4 0 5.6s4 1.5 5.6 0l12.5-12.5L41.2 48c1.5 1.5 4 1.5 5.6 0s1.5-4 0-5.6h0L34.2 29.9z"/><path fill="#ff4f65" d="M34.2 29.9l12.5-12.5c1.5-1.5 1.5-4 0-5.6s-4-1.5-5.6 0L28.6 24.3 16.1 11.8c-1.5-1.5-4-1.5-5.6 0-1.5 1.5-1.5 4 0 5.6L23 29.9 10.6 42.4c-1.5 1.5-1.5 4 0 5.6s4 1.5 5.6 0l12.5-12.5L41.2 48c1.5 1.5 4 1.5 5.6 0s1.5-4 0-5.6L34.2 29.9z"/><defs><path d="M34.2 29.9l12.5-12.5c1.5-1.5 1.5-4 0-5.6s-4-1.5-5.6 0L28.6 24.3 16.1 11.8c-1.5-1.5-4-1.5-5.6 0-1.5 1.5-1.5 4 0 5.6L23 29.9 10.6 42.4c-1.5 1.5-1.5 4 0 5.6s4 1.5 5.6 0l12.5-12.5L41.2 48c1.5 1.5 4 1.5 5.6 0s1.5-4 0-5.6L34.2 29.9z"/></defs><clipPath id="b"><use overflow="visible" xlink:href="#a"/></clipPath><g clip-path="url(#b)"><path fill="#ff899c" d="M28.6-1.2s7.6 33.6 20.9 30.3S71.1-3.6 71.1-3.6L28.6-1.2z"/></g></g></switch></svg>