<svg xmlns="http://www.w3.org/2000/svg" xmlns:xlink="http://www.w3.org/1999/xlink" viewBox="0 0 56 52"><switch><g><path fill="none" stroke="#fff" stroke-linecap="round" stroke-linejoin="round" stroke-width="5" d="M50.3 4.8c-1.7-1.7-4.8-1.3-6.6.4l-8.9 8.9L18.3 8c-1.6-.4-3.2-.9-5.1 1-1 1-3.1 3.1 0 6.2l11.3 9.3-7.4 7.4-6.9-1.7c-.7-.4-1.6-.2-2.2.4-.3.3-2.2 1.8-.8 3.1l8 6.2 6.2 8c1 1 1.9.4 3.1-.8.8-.8.6-1.2.4-2.3L23.3 38l7.3-7.4L39.9 42c3.1 3.1 5.2 1 6.2 0 2-2 1.4-3.6 1-5.2L41 20.3l8.9-8.9c1.7-1.8 2.2-4.8.4-6.6z"/><path fill="#3eabfd" d="M50.3 4.8c-1.7-1.7-4.8-1.3-6.6.4l-8.9 8.9L18.3 8c-1.6-.4-3.2-.9-5.1 1-1 1-3.1 3.1 0 6.2l11.3 9.3-7.4 7.4-6.9-1.7c-.7-.4-1.6-.2-2.2.4-.3.3-2.2 1.8-.8 3.1l8 6.2 6.2 8c1 1 1.9.4 3.1-.8.8-.8.6-1.2.4-2.3L23.3 38l7.3-7.4L39.9 42c3.1 3.1 5.2 1 6.2 0 2-2 1.4-3.6 1-5.2L41 20.3l8.9-8.9c1.7-1.8 2.2-4.8.4-6.6z"/><defs><path d="M50.3 4.8c-1.7-1.7-4.8-1.3-6.6.4l-8.9 8.9L18.3 8c-1.6-.4-3.2-.9-5.1 1-1 1-3.1 3.1 0 6.2l11.3 9.3-7.4 7.4-6.9-1.7c-.7-.4-1.6-.2-2.2.4-.3.3-2.2 1.8-.8 3.1l8 6.2 6.2 8c1 1 1.9.4 3.1-.8.8-.8.6-1.2.4-2.3L23.3 38l7.3-7.4L39.9 42c3.1 3.1 5.2 1 6.2 0 2-2 1.4-3.6 1-5.2L41 20.3l8.9-8.9c1.7-1.8 2.2-4.8.4-6.6z"/></defs><clipPath id="b"><use overflow="visible" xlink:href="#a"/></clipPath><g clip-path="url(#b)"><path fill="#00baff" d="M25.8-8.9S31.3 27.6 57.9 23 36.4-10.9 25.8-8.9z"/></g></g></switch></svg>