<svg xmlns="http://www.w3.org/2000/svg" viewBox="0 0 49.89 49.87"><g><g><path fill="none" stroke="#fff" stroke-linejoin="round" stroke-width="5" d="M47.34 8.72a1.78 1.78 0 00-2-2c-5.45-.1-10.9 0-16.36 0V2.5H26C18.14 3.93 10.32 5.29 2.5 6.69v36.52c7.78 1.4 15.56 2.73 23.34 4.16H29v-4.1h15.32a4.81 4.81 0 002.57-.53 6.23 6.23 0 00.5-3.17c-.05-10.26.04-20.57-.05-30.85z"/><path fill="#63c772" d="M47.34 8.72a1.78 1.78 0 00-2-2c-5.45-.1-10.9 0-16.36 0V2.5H26C18.14 3.93 10.32 5.29 2.5 6.69v36.52c7.78 1.4 15.56 2.73 23.34 4.16H29v-4.1h15.32a4.81 4.81 0 002.57-.53 6.23 6.23 0 00.5-3.17c-.05-10.26.04-20.57-.05-30.85z"/><path fill="#fff" d="M29 8.24h16.84v33.41H29v-4.18h13.27v-2.11H29v-2.59h13.27v-2.11H29v-2.58h13.27V26H29v-2.68h13.27v-2H29v-2.67h13.27v-2.06H29V14h13.27v-2.1H29zM11.56 33.67H7.44L12.88 25 7.7 16.73h4.24l3 5.5 3.11-5.5h4.09L17 24.89l5.51 8.78h-4.34L15 27.91z"/></g></g></svg>