<svg xmlns="http://www.w3.org/2000/svg" xmlns:xlink="http://www.w3.org/1999/xlink" viewBox="0 0 58 50"><switch><g><path fill="none" stroke="#fff" stroke-linecap="round" stroke-linejoin="round" stroke-width="5" d="M54.2 6.8c-13.3 5.4-24.8 14.3-33.4 25.8-2.7-4.8-6.4-9-10.8-12.3l-.3-.2-8.1 7.7.6.3c7.7 3.9 14.2 9.8 18.9 17.1.1.2.2.3.4.5l.4.4.3-.5c.5-.8.9-1.5 1.4-2.3 3.7-6.3 8.1-12.1 13.1-17.4 9.5-10.8 17.7-13.7 17.8-13.7l.3-.1V6.5l-.6.3z"/><path fill="#ff4f65" d="M54.2 6.8c-13.3 5.4-24.8 14.3-33.4 25.8-2.7-4.8-6.4-9-10.8-12.3l-.3-.2-8.1 7.7.6.3c7.7 3.9 14.2 9.8 18.9 17.1.1.2.2.3.4.5l.4.4.3-.5c.5-.8.9-1.5 1.4-2.3 3.7-6.3 8.1-12.1 13.1-17.4 9.5-10.8 17.7-13.7 17.8-13.7l.3-.1V6.5l-.6.3z"/><defs><path d="M54.2 6.8c-13.3 5.4-24.8 14.3-33.4 25.8-2.7-4.8-6.4-9-10.8-12.3l-.3-.2-8.1 7.7.6.3c7.7 3.9 14.2 9.8 18.9 17.1.1.2.2.3.4.5l.4.4.3-.5c.5-.8.9-1.5 1.4-2.3 3.7-6.3 8.1-12.1 13.1-17.4 9.5-10.8 17.7-13.7 17.8-13.7l.3-.1V6.5l-.6.3z"/></defs><clipPath id="b"><use overflow="visible" xlink:href="#a"/></clipPath><g clip-path="url(#b)"><path fill="#ff899c" d="M46.4-4.6c-6.9 5.5-5.3 31.3 6.9 29.3S66.6 2.5 63.4-1.5c-3.1-4-17-3.1-17-3.1z"/></g></g></switch></svg>