<svg xmlns="http://www.w3.org/2000/svg" viewBox="0 0 49.89 49.87"><g><g><path fill="none" stroke="#fff" stroke-linejoin="round" stroke-width="5" d="M47.34 8.72a1.78 1.78 0 00-2-2c-5.45-.1-10.9 0-16.36 0V2.5H26C18.14 3.93 10.32 5.29 2.5 6.69v36.52c7.78 1.4 15.56 2.73 23.34 4.16H29v-4.1h15.32a4.81 4.81 0 002.57-.53 6.23 6.23 0 00.5-3.17c-.05-10.26.04-20.57-.05-30.85z"/><path fill="#3eabfd" d="M47.34 8.72a1.78 1.78 0 00-2-2c-5.45-.1-10.9 0-16.36 0V2.5H26C18.14 3.93 10.32 5.29 2.5 6.69v36.52c7.78 1.4 15.56 2.73 23.34 4.16H29v-4.1h15.32a4.81 4.81 0 002.57-.53 6.23 6.23 0 00.5-3.17c-.05-10.26.04-20.57-.05-30.85z"/><path fill="#fff" d="M29 8.24h16.84v33.41H29v-4.18h13.27v-2.11H29v-2.59h13.27v-2.11H29v-2.58h13.27V26H29v-2.68h13.27v-2H29v-2.67h13.27v-2.06H29V14h13.27v-2.1H29zm-15.94 9.23l2.94-.16c.68 3.53 1.37 7 2.11 10.56.57-3.63 1.21-7.24 1.83-10.85 1 0 2-.1 3.06-.16C21.81 21.92 20.8 27 19.54 32c-.85.46-2.11 0-3.14.06-.7-3.47-1.49-6.9-2.1-10.37-.59 3.37-1.37 6.71-2.05 10.06l-2.95-.14C8.45 27 7.46 22.45 6.66 17.85l2.64-.11c.53 3.33 1.12 6.63 1.58 10q1.06-5.13 2.18-10.24z"/></g></g></svg>