<svg xmlns="http://www.w3.org/2000/svg" viewBox="0 0 56 56"><defs><style>.cls-3{fill:#fff}</style></defs><g><g><circle cx="28" cy="28" r="25.5" fill="none" stroke="#fcfcfc" stroke-linecap="round" stroke-linejoin="round" stroke-width="5"/><circle cx="28" cy="28" r="25.5" fill="#63c772"/><path d="M31 11.52V26.9h4.67a.6.6 0 01.47 1l-7.67 9.61a.59.59 0 01-.94 0l-7.67-9.61a.6.6 0 01.47-1H25V11.52a.6.6 0 01.6-.6h4.8a.6.6 0 01.6.6zM18.75 39.92H38v5H18.75c-.41 0-.75-.22-.75-.5v-4c0-.27.34-.5.75-.5z" class="cls-3"/></g></g></svg>