<svg xmlns="http://www.w3.org/2000/svg" viewBox="0 0 46.65 62.19"><defs><style>.cls-1{fill:#fff}.cls-2{fill:none;stroke:#fcfcfc;stroke-linecap:round;stroke-linejoin:round;stroke-width:5px}.cls-3{fill:#ffdd3c}.cls-4{fill:#ffba00}</style></defs><g><g><path d="M31.68 53.91l-15 1.59a.44.44 0 00-.18.82l5.1 2.91a3.48 3.48 0 003.45 0s4.63-2.8 7-4.43a.49.49 0 00-.37-.89zM31 46.76l-15.8 1.76a1.94 1.94 0 00-1.74 1.93v.06a2 2 0 002.15 1.94l15.83-1.76a2 2 0 001.75-1.94v-.06A2 2 0 0031 46.76zM44.15 23.32a20.83 20.83 0 10-31.06 18.13v2.42a1.46 1.46 0 001.62 1.45l17.53-1.86A1.45 1.45 0 0033.55 42v-.56a20.82 20.82 0 0010.6-18.12z" class="cls-1"/><path d="M16.5 56.32l5.1 2.91a3.48 3.48 0 003.45 0s4.63-2.8 7-4.43a.49.49 0 00-.34-.89l-15 1.59a.44.44 0 00-.21.82zM33.55 42v-1a2 2 0 00-1.95-2H15a2 2 0 00-1.91 2v2.89a1.46 1.46 0 001.62 1.45l17.53-1.86A1.45 1.45 0 0033.55 42zM13.46 50.45v.06a2 2 0 002.15 1.94l15.83-1.76a2 2 0 001.75-1.94v-.06A2 2 0 0031 46.76l-15.8 1.76a1.94 1.94 0 00-1.74 1.93z" class="cls-2"/><circle cx="23.32" cy="23.32" r="20.82" class="cls-2"/><circle cx="23.32" cy="26.16" r="5.7" class="cls-2"/><rect width="2.3" height="9.82" x="22.17" y="29.91" class="cls-2" rx="1.15"/><path d="M16.5 56.32l5.1 2.91a3.48 3.48 0 003.45 0s4.63-2.8 7-4.43a.49.49 0 00-.34-.89l-15 1.59a.44.44 0 00-.21.82z" class="cls-3"/><path d="M33.55 42v-1a2 2 0 00-1.95-2H15a2 2 0 00-1.91 2v2.89a1.46 1.46 0 001.62 1.45l17.53-1.86A1.45 1.45 0 0033.55 42z" class="cls-4"/><path d="M13.46 50.45v.06a2 2 0 002.15 1.94l15.83-1.76a2 2 0 001.75-1.94v-.06A2 2 0 0031 46.76l-15.8 1.76a1.94 1.94 0 00-1.74 1.93z" class="cls-3"/><circle cx="23.32" cy="23.32" r="20.82" class="cls-4"/><circle cx="23.32" cy="26.16" r="5.7" class="cls-1"/><rect width="2.3" height="9.82" x="22.17" y="29.91" class="cls-1" rx="1.15"/></g></g></svg>