<svg xmlns="http://www.w3.org/2000/svg" viewBox="0 0 51.34 51.34"><defs><style>.cls-1{fill:none;stroke:#fcfcfc;stroke-linecap:round;stroke-linejoin:round;stroke-width:5px}</style></defs><g><g><path d="M22 5.55a21.7 21.7 0 1023.79 23.8 2 2 0 00-2-2.21H26.22a2 2 0 01-2-2V7.57A2 2 0 0022 5.55z" class="cls-1"/><path d="M27.24 4.54v17.53a2 2 0 002 2H46.8a2 2 0 002-2.21A21.7 21.7 0 0029.45 2.51a2 2 0 00-2.21 2.03z" class="cls-1"/><path fill="#3eabfd" d="M22 5.55a21.7 21.7 0 1023.79 23.8 2 2 0 00-2-2.21H26.22a2 2 0 01-2-2V7.57A2 2 0 0022 5.55z"/><path fill="#00baff" d="M27.24 4.54v17.53a2 2 0 002 2H46.8a2 2 0 002-2.21A21.7 21.7 0 0029.45 2.51a2 2 0 00-2.21 2.03z"/></g></g></svg>