<svg xmlns="http://www.w3.org/2000/svg" viewBox="0 0 56 56"><g><g><circle cx="28" cy="28" r="25.5" fill="none" stroke="#fcfcfc" stroke-linecap="round" stroke-linejoin="round" stroke-width="5"/><circle cx="28" cy="28" r="25.5" fill="#92989a"/><path fill="#fff" d="M38.92 35.21A16.74 16.74 0 0037.13 31a8.94 8.94 0 00-2.38-2.37 8.53 8.53 0 003.11-2.5 7.14 7.14 0 001.58-4.55 7.3 7.3 0 00-2.34-5.45A7.83 7.83 0 0031.55 14H18.87a2.25 2.25 0 00-2.52 2.47v23.1c0 2.15 1.39 2.47 2.22 2.47s2.22-.32 2.22-2.47v-8.8h8c2.32 0 4 1.23 5.09 3.78a14.35 14.35 0 01.84 2.65c.17 1 .37 2 .59 2.95C35.57 41.7 36.36 42 37 42c2.33 0 2.68-1.49 2.68-2.39a15.94 15.94 0 00-.76-4.4zm-4.17-13.47A4.22 4.22 0 0134 24c-1 1.57-2.74 2.33-5.21 2.33h-8v-7.9h10.3a3.85 3.85 0 012.65.93 3 3 0 011.01 2.38z"/></g></g></svg>