<svg xmlns="http://www.w3.org/2000/svg" viewBox="0 0 50 50"><defs><linearGradient id="a" x1="8.2" x2="40.62" y1="8.83" y2="40.04" gradientUnits="userSpaceOnUse"><stop offset=".11" stop-color="#00baff"/><stop offset=".9" stop-color="#1d8ffd"/></linearGradient></defs><g><g><circle cx="25" cy="25" r="22.5" fill="#fff" stroke="#fcfcfc" stroke-linecap="round" stroke-linejoin="round" stroke-width="5"/><path fill="url(#a)" d="M25 2.5A22.5 22.5 0 1047.5 25 22.5 22.5 0 0025 2.5zm-7.66 40.64A19.69 19.69 0 015.31 25a19.64 19.64 0 01.36-3.76 2.55 2.55 0 00.92.17 2.14 2.14 0 001.19-.33 2.14 2.14 0 011.16-.36 1.88 1.88 0 011 .29 1.1 1.1 0 01.61 1c0 3.58.12 7.41 3.38 7.46a4.63 4.63 0 012.63 2.79.5.5 0 00.53.32c.51 0 1.28-.32 2.1-.32.61 0 0 1 0 3.27S24 41.18 24 41.18a27 27 0 00.14 3.49 19.57 19.57 0 01-6.8-1.53zm21.58-4.22a19.64 19.64 0 01-9.55 5.28h-.22a1.8 1.8 0 00-.53.08c.68-2.88 1-4.5 2.41-5.72C33 36.86 31.46 35 30 35H29.57c-1 0-.33-1.53-1.37-1.62s-2.52-2.26-4.1-3c-.84-.39-1.65-1.46-2.95-1.52h-.07c-.82 0-1.86.49-2.39.49-.21 0-.35-.08-.35-.29 0-2.51-.25-4.3-.29-5 0-.24-.09-.31-.05-.31a4 4 0 001.22.16c.82 0 .43-1.69 1.24-1.76h.1c.72 0 2.09.51 2.81.51a.66.66 0 00.34-.07c.39 0 1.91 3.79 2.76 3.79.35 0 .59-.64.59-2.46 0-.75-.39-2.06 0-2.78 1.54-2.82 3-5.13 2.86-5.45 0-.1-.49-.2-1.1-.2a5.61 5.61 0 00-1.68.25c-.41.14.12.78-.45.91a4.78 4.78 0 01-1.1.13c-1.68 0-2.9-.89-2.35-1.75.7-1 3.2-.46 3.43-2.57.1-1 .19-2.08.25-3a.68.68 0 01.63-.63c1.64-.12 1.81-2.06.28-3.31a19.56 19.56 0 0111 5.56 19.55 19.55 0 013.94 5.62 1.4 1.4 0 00-.76-.23c-1.25 0-2.39 1.69-1.67 3.6-5.85 4.49-4.35 7.62-2.44 9.41a14 14 0 011.6 1.87 5.89 5.89 0 01.92 2.17.54.54 0 00.6.42A3.23 3.23 0 0043 33a19.49 19.49 0 01-4.08 5.94z"/></g></g></svg>