<svg xmlns="http://www.w3.org/2000/svg" viewBox="0 0 53.52 49.48"><defs><style>.cls-3{stroke:#fafafa;stroke-linecap:round;stroke-linejoin:round;fill:#a4f4ab;stroke-width:1.5px}</style></defs><g><g><path fill="none" stroke="#fafafa" stroke-linecap="round" stroke-linejoin="round" stroke-width="5" d="M47 2.5H6.57a4 4 0 00-4.05 4.05v28.29a4 4 0 004.05 4h11.27l7.48 7.5a2 2 0 001.43.6 2 2 0 001.42-.6l7.52-7.5H47a4 4 0 004-4V6.55a4 4 0 00-4-4.05z"/><path fill="#63c772" d="M47 2.5H6.57a4 4 0 00-4.05 4.05v28.29a4 4 0 004.05 4h11.27l7.48 7.5a2 2 0 001.43.6 2 2 0 001.42-.6l7.52-7.5H47a4 4 0 004-4V6.55a4 4 0 00-4-4.05z"/><path d="M15.64 24.74a3 3 0 113-3 3 3 0 01-3 3zM26.76 24.74a3 3 0 113-3 3 3 0 01-3 3zM37.88 24.74a3 3 0 113-3 3 3 0 01-3 3z" class="cls-3"/></g></g></svg>