<svg xmlns="http://www.w3.org/2000/svg" viewBox="0 0 56 56"><g><g><circle cx="28" cy="28" r="25.5" fill="none" stroke="#fcfcfc" stroke-linecap="round" stroke-linejoin="round" stroke-width="5"/><circle cx="28" cy="28" r="25.5" fill="#92989a"/><path fill="#fff" d="M37.32 31.57a2 2 0 00-1.83 1.34 9 9 0 01-.77 1.37 7.08 7.08 0 01-6.26 3.59 6.57 6.57 0 01-5.69-2.78 10.37 10.37 0 01-1.91-6.38 12.76 12.76 0 012-7.36 7.13 7.13 0 016.35-3.27 7 7 0 013.88 1.14 6.28 6.28 0 012.29 3.17 1.94 1.94 0 001.81 1.45 2.67 2.67 0 001.81-.65 2.37 2.37 0 00.69-1.74 6.36 6.36 0 00-1.52-3.7c-2-2.7-5-4.07-9-4.07a11.93 11.93 0 00-9.89 4.52 16.75 16.75 0 00-3.17 10.51 14.56 14.56 0 003.14 9.48 11.2 11.2 0 009 4.13 12.35 12.35 0 009.31-4.24c1.47-1.62 2.19-3 2.19-4.12a2.21 2.21 0 00-2.43-2.39z"/></g></g></svg>