<svg xmlns="http://www.w3.org/2000/svg" viewBox="0 0 50.9 49"><switch><g><path fill="none" stroke="#fcfcfc" stroke-linecap="round" stroke-linejoin="round" stroke-width="5" d="M44 16.6H26.6c-.4 0-.7-.3-.7-.6 0-.1 0-.2.1-.4l4.5-7.3c.9-1.4.8-3.1-.1-4.4-1.3-1.6-3.6-1.9-5.2-.6l-.3.3-12 11.7c-.9.8-1.3 2-1.3 3.2V42c0 2.4 2 4.4 4.4 4.4 0 0 0 0 0 0h23.8c2.1 0 3.9-1.5 4.3-3.5L48.3 22c.5-2.4-1.1-4.7-3.5-5.2-.2-.2-.5-.2-.8-.2zM5.5 20.2v23.3M5.5 46.5c-1.7 0-3-1.3-3-3V20.2c0-1.7 1.3-3 3-3s3 1.3 3 3v23.3c0 1.6-1.3 3-3 3z"/><path fill="#ff4661" d="M44 16.6H26.6c-.4 0-.7-.3-.7-.6 0-.1 0-.2.1-.4l4.5-7.3c.9-1.4.8-3.1-.1-4.4-1.3-1.6-3.6-1.9-5.2-.6l-.3.3-12 11.7c-.9.8-1.3 2-1.3 3.2V42c0 2.4 2 4.4 4.4 4.4h23.8c2.1 0 3.9-1.5 4.3-3.5L48.3 22c.5-2.4-1.1-4.7-3.5-5.2-.2-.2-.5-.2-.8-.2z"/><path fill="none" stroke="#ff899c" stroke-linecap="round" stroke-linejoin="round" stroke-width="6" d="M5.5 20.2v23.3"/></g></switch></svg>