<svg xmlns="http://www.w3.org/2000/svg" viewBox="0 0 56.1 48.6"><switch><g><path fill="none" stroke="#fcfcfc" stroke-linecap="round" stroke-linejoin="round" stroke-width="5" d="M25.4 45l-17-17h0L29.9 6.5c5.4-5.4 14.2-5.4 19.6 0 0 0 0 0 0 0h0c5.4 5.4 5.4 14.2 0 19.6L30.7 45c-1.5 1.4-3.8 1.4-5.3 0 0 0 0 0 0 0z"/><path fill="none" stroke="#fcfcfc" stroke-linecap="round" stroke-linejoin="round" stroke-width="5" d="M6.6 6.6h0c5.4-5.4 14.1-5.4 19.5 0l21.5 21.5h0l-17 17c-1.4 1.4-3.8 1.4-5.2 0L6.5 26.2C1.1 20.8 1.1 12 6.6 6.6c-.1 0-.1 0 0 0z"/><path fill="#ff8891" d="M25.4 45l-17-17L29.9 6.5c5.4-5.4 14.2-5.4 19.6 0 5.4 5.4 5.4 14.2 0 19.6L30.7 45c-1.5 1.4-3.8 1.4-5.3 0z"/><path fill="#ff4661" d="M6.6 6.6c5.4-5.4 14.1-5.4 19.5 0l21.5 21.5-17 17c-1.4 1.4-3.8 1.4-5.2 0L6.5 26.2C1.1 20.8 1.1 12 6.6 6.6c-.1 0-.1 0 0 0z"/></g></switch></svg>