<svg xmlns="http://www.w3.org/2000/svg" viewBox="0 0 56.94 48.9"><defs><style>.cls-1,.cls-2{fill:none;stroke-linecap:round;stroke-linejoin:round}.cls-1{stroke:#fcfcfc;stroke-width:5px}.cls-2{stroke:#ffdd3c;stroke-width:3.86px}.cls-4{fill:#ffdd3c}</style></defs><g><g><path d="M28.47 46.4a2 2 0 01-2-2V33.52a2 2 0 113.92 0v10.92a2 2 0 01-1.92 1.96z" class="cls-1"/><path d="M11.07 2.5h34.8v18A16.83 16.83 0 0129 37.3h-1.1a16.83 16.83 0 01-16.83-16.84V2.5z" class="cls-1"/><path d="M4.43 2.5h6.64v17.66H10a7.54 7.54 0 01-7.5-7.54V4.43A1.93 1.93 0 014.43 2.5z" class="cls-1"/><path d="M53.41 2.5h1v17.66H47.8a1.93 1.93 0 01-1.93-1.93V10a7.54 7.54 0 017.54-7.5z" class="cls-1" transform="rotate(-180 50.15 11.33)"/><path d="M36.63 46.4H20.3a2 2 0 010-3.92h16.33a2 2 0 110 3.92zM29.49 12.25l1.7 2.49a1.25 1.25 0 00.67.48l2.89.85a1.25 1.25 0 01.63 1.93l-1.83 2.4a1.21 1.21 0 00-.26.79l.08 3a1.23 1.23 0 01-1.65 1.2l-2.84-1a1.31 1.31 0 00-.83 0l-2.83 1a1.23 1.23 0 01-1.65-1.2l.08-3a1.21 1.21 0 00-.26-.79L21.56 18a1.24 1.24 0 01.63-1.95l2.88-.85a1.28 1.28 0 00.68-.48l1.7-2.49a1.24 1.24 0 012.04.02z" class="cls-1"/><path d="M28.47 33.52v10.92" class="cls-2"/><path fill="#ffba00" d="M11.07 2.5h34.8v18A16.83 16.83 0 0129 37.3h-1.1a16.83 16.83 0 01-16.83-16.84V2.5z"/><path d="M4.43 2.5h6.64v17.66H10a7.54 7.54 0 01-7.5-7.54V4.43A1.93 1.93 0 014.43 2.5z" class="cls-4"/><path d="M53.41 2.5h1v17.66H47.8a1.93 1.93 0 01-1.93-1.93V10a7.54 7.54 0 017.54-7.5z" class="cls-4" transform="rotate(-180 50.15 11.33)"/><path d="M20.3 44.44h16.33" class="cls-2"/><path fill="#fdfdfd" d="M29.49 12.25l1.7 2.49a1.25 1.25 0 00.67.48l2.89.85a1.25 1.25 0 01.63 1.93l-1.83 2.4a1.21 1.21 0 00-.26.79l.08 3a1.23 1.23 0 01-1.65 1.2l-2.84-1a1.31 1.31 0 00-.83 0l-2.83 1a1.23 1.23 0 01-1.65-1.2l.08-3a1.21 1.21 0 00-.26-.79L21.56 18a1.24 1.24 0 01.63-1.95l2.88-.85a1.28 1.28 0 00.68-.48l1.7-2.49a1.24 1.24 0 012.04.02z"/></g></g></svg>