<svg xmlns="http://www.w3.org/2000/svg" viewBox="0 0 51.08 51.08"><g><g><path fill="none" stroke="#fff" stroke-linecap="round" stroke-linejoin="round" stroke-width="5" d="M19.69 19.33A1.35 1.35 0 1021 20.68a1.36 1.36 0 00-1.31-1.35zm11.07 8.73a2.16 2.16 0 102.16 2.16 2.16 2.16 0 00-2.16-2.16zm15.12-6.57v2.7H43a17.42 17.42 0 00-4.15-10l2.08-2.08L42.79 14l1.91-1.91L39 6.38l-1.94 1.91L39 10.2l-2.08 2.08a17.42 17.42 0 00-10-4.15V5.2h2.7V2.5h-8.1v2.7h2.7v2.93a17.42 17.42 0 00-10 4.15l-2.11-2.08L14 8.29l-1.89-1.91-5.73 5.73L8.29 14l1.91-1.91 2.08 2.08a17.42 17.42 0 00-4.15 10H5.2v-2.7H2.5v8.1h2.7v-2.7h2.93a17.42 17.42 0 004.15 10L10.2 39l-1.91-1.94L6.38 39l5.73 5.73L14 42.79l-1.91-1.91 2.08-2.08a17.42 17.42 0 0010 4.15v2.93h-2.7v2.7h8.1v-2.7h-2.7V43a17.42 17.42 0 0010-4.15L39 40.88l-1.91 1.91L39 44.7l5.7-5.7-1.91-1.91L40.88 39l-2.08-2.11a17.42 17.42 0 004.15-10h2.93v2.7h2.7v-8.1zm-25.83 8.82h-2.7v-2.7h2.7zm2.88 5.94h-2.7v-2.7h2.7zm-3.24-11.52a4.05 4.05 0 114-4.05 4.06 4.06 0 01-4 4.05zm10.62-5.85H33v2.7h-2.7zm.45 16.2a4.86 4.86 0 114.86-4.86 4.87 4.87 0 01-4.86 4.86z"/><path fill="#63c772" d="M19.69 19.33A1.35 1.35 0 1021 20.68a1.36 1.36 0 00-1.31-1.35zm11.07 8.73a2.16 2.16 0 102.16 2.16 2.16 2.16 0 00-2.16-2.16zm15.12-6.57v2.7H43a17.42 17.42 0 00-4.15-10l2.08-2.08L42.79 14l1.91-1.91L39 6.38l-1.94 1.91L39 10.2l-2.08 2.08a17.42 17.42 0 00-10-4.15V5.2h2.7V2.5h-8.1v2.7h2.7v2.93a17.42 17.42 0 00-10 4.15l-2.11-2.08L14 8.29l-1.89-1.91-5.73 5.73L8.29 14l1.91-1.91 2.08 2.08a17.42 17.42 0 00-4.15 10H5.2v-2.7H2.5v8.1h2.7v-2.7h2.93a17.42 17.42 0 004.15 10L10.2 39l-1.91-1.94L6.38 39l5.73 5.73L14 42.79l-1.91-1.91 2.08-2.08a17.42 17.42 0 0010 4.15v2.93h-2.7v2.7h8.1v-2.7h-2.7V43a17.42 17.42 0 0010-4.15L39 40.88l-1.91 1.91L39 44.7l5.7-5.7-1.91-1.91L40.88 39l-2.08-2.11a17.42 17.42 0 004.15-10h2.93v2.7h2.7v-8.1zm-25.83 8.82h-2.7v-2.7h2.7zm2.88 5.94h-2.7v-2.7h2.7zm-3.24-11.52a4.05 4.05 0 114-4.05 4.06 4.06 0 01-4 4.05zm10.62-5.85H33v2.7h-2.7zm.45 16.2a4.86 4.86 0 114.86-4.86 4.87 4.87 0 01-4.86 4.86z"/></g></g></svg>