<svg xmlns="http://www.w3.org/2000/svg" viewBox="0 0 70.74 59.71"><defs><style>.cls-1,.cls-2{fill:none;stroke:#fcfcfc;stroke-width:5.75px;stroke-linecap:round;stroke-linejoin:round}.cls-2{stroke:#fafafa;stroke-width:5px}.cls-5{fill:#a4f4ab}</style></defs><g><g><path d="M35.32 48.69a7.88 7.88 0 01-3.77-1 8 8 0 01-3.9-4.69L27 40.76a8 8 0 015.36-10l23.74-7.19a9.08 9.08 0 0111.33 6.07l.06.18a9.1 9.1 0 01-6.06 11.34l-23.77 7.18a8.14 8.14 0 01-2.34.35zm23.4-20.92a4.51 4.51 0 00-1.3.2l-23.75 7.19a3.36 3.36 0 00-2 1.66 3.44 3.44 0 00-.26 2.61l.67 2.22a3.44 3.44 0 004.28 2.29l23.75-7.19a4.5 4.5 0 003-5.6L63 31a4.49 4.49 0 00-4.29-3.19z" class="cls-1"/><path d="M7.48 18.34h42.17a4.6 4.6 0 014.6 4.6v10.15a23.74 23.74 0 01-23.74 23.74h-3.89A23.74 23.74 0 012.88 33.09V22.94a4.6 4.6 0 014.6-4.6z" class="cls-1"/><path d="M26.23 11.21a4.38 4.38 0 00.71 1.22 1 1 0 00.17.19l.11.11A1.18 1.18 0 0028.8 11a1.85 1.85 0 01-.41-.72 2.72 2.72 0 01.21-2 4.84 4.84 0 00-.49-5.4 1.18 1.18 0 00-1.7 1.64 1.69 1.69 0 01.3.6 3 3 0 01-.26 2.18 5 5 0 00-.22 3.91zM32.43 11.21a4.15 4.15 0 00.71 1.22 1 1 0 00.16.19.5.5 0 00.12.11A1.18 1.18 0 0035 11a2.14 2.14 0 01-.41-.72 2.82 2.82 0 01.21-2 4.82 4.82 0 00-.48-5.4 1.18 1.18 0 10-1.7 1.64 2.11 2.11 0 01.3.6 3.08 3.08 0 01-.26 2.18 5 5 0 00-.23 3.91zM19.86 11.21a4.38 4.38 0 00.71 1.22 1.54 1.54 0 00.17.19.53.53 0 00.11.11A1.18 1.18 0 0022.44 11a1.85 1.85 0 01-.41-.72 2.72 2.72 0 01.21-2 4.82 4.82 0 00-.48-5.4 1.18 1.18 0 10-1.7 1.64 1.86 1.86 0 01.29.6 3 3 0 01-.26 2.18 5 5 0 00-.23 3.91z" class="cls-2"/><path fill="none" stroke="#63c772" stroke-miterlimit="10" stroke-width="4.6" d="M32.998 32.953l23.756-7.19a6.79 6.79 0 018.418 4.546l.058.191a6.79 6.79 0 01-4.532 8.466L36.99 46.142a5.73 5.73 0 01-7.123-3.789l-.683-2.259a5.73 5.73 0 013.824-7.144z"/><path fill="#63c772" d="M7.48 18.34h42.17a4.6 4.6 0 014.6 4.6v10.15a23.74 23.74 0 01-23.74 23.74h-3.89A23.74 23.74 0 012.88 33.09V22.94a4.6 4.6 0 014.6-4.6z"/><path d="M26.23 11.21a4.38 4.38 0 00.71 1.22 1 1 0 00.17.19l.11.11A1.18 1.18 0 0028.8 11a1.85 1.85 0 01-.41-.72 2.72 2.72 0 01.21-2 4.84 4.84 0 00-.49-5.4 1.18 1.18 0 00-1.7 1.64 1.69 1.69 0 01.3.6 3 3 0 01-.26 2.18 5 5 0 00-.22 3.91zM32.43 11.21a4.15 4.15 0 00.71 1.22 1 1 0 00.16.19.5.5 0 00.12.11A1.18 1.18 0 0035 11a2.14 2.14 0 01-.41-.72 2.82 2.82 0 01.21-2 4.82 4.82 0 00-.48-5.4 1.18 1.18 0 10-1.7 1.64 2.11 2.11 0 01.3.6 3.08 3.08 0 01-.26 2.18 5 5 0 00-.23 3.91zM19.86 11.21a4.38 4.38 0 00.71 1.22 1.54 1.54 0 00.17.19.53.53 0 00.11.11A1.18 1.18 0 0022.44 11a1.85 1.85 0 01-.41-.72 2.72 2.72 0 01.21-2 4.82 4.82 0 00-.48-5.4 1.18 1.18 0 10-1.7 1.64 1.86 1.86 0 01.29.6 3 3 0 01-.26 2.18 5 5 0 00-.23 3.91z" class="cls-5"/><path fill="#fdfdfd" d="M56 29.95v5.98l5.98-1.81-1.15-5.82L56 29.95z"/><path fill="none" stroke="#fff" stroke-miterlimit="10" stroke-width="3" d="M2.88 27.77h51.37"/></g></g></svg>