<svg xmlns="http://www.w3.org/2000/svg" viewBox="0 0 39.2 43.9"><switch><g><path fill="#ff4f65" d="M9.8 1.2v-.1c-.3-.4-.6-.7-1-.8L8.6.2C8.4.1 8.2.1 8 .1c-.4 0-.7.1-1 .3l-.1.1-.6.6c-.2.2-.4.5-.5.7L3.5 4.7c-.1.2-.2.3-.4.5s-.3.3-.4.5l-.9 1.1-.3.2-.2.2-.5.4c-.4.3-.7.7-.8 1.2 0 .4 0 .8.2 1.1.1.3.3.6.5.8.2.3.5.5.8.6.2.1.5.2.8.2.3 0 .7 0 1-.1.4-.2.7-.4 1-.8l-.1.5c-.1.5-.2 1-.2 1.5l-.1.6c-.1.5-.2 1.1-.3 2s-.3 1.8-.4 2.7l-.4 2.9c-.1 1-.2 1.7-.2 2.3v.8l.1.5c0 .2.1.4.2.6.2.4.5.8.9 1 .3.2.6.3.9.3h.2c.2 0 .3 0 .5-.1.2 0 .4-.1.6-.2.3-.1.5-.3.7-.5l.1-.1c.1-.3.2-.6.2-.9v-1.6c0-.9 0-1.8.1-2.8.1-1 .2-2.1.3-3.4s.4-2.6.6-3.7c.2-1.4.4-2.6.7-3.8s.5-2.2.8-3.4c.2-.7.4-1.2.4-1.6.1-.5.1-.7.2-.9v-.4-.5c0-.4-.1-.8-.3-1.2zM22.6 3.1C21.8 1.3 20 .2 18 .3c-2.6 0-4.6 1.9-6 5.4-1.3 3.4-1.9 7.1-1.7 10.8-.1 2.5.5 5 1.7 7.2 1 1.8 2.9 2.9 4.9 2.8h.1c2.7 0 4.7-1.9 6-5.6 1-3.2 1.4-6.6 1.3-10-.2-3.5-.7-6-1.7-7.8zm-7.4 17.5c-.6-1.4-.8-2.9-.8-4.4-.1-2.8.3-5.5 1.1-8.1.7-1.9 1.5-3 2.3-3 1.8 0 2.1 3.9 2.2 6.3.1 2.5-.3 5-1 7.4-.4 1.3-1.2 2.9-2.2 2.9-.7 0-1.3-.4-1.6-1.1zM39.2 10.7c-.1-3.5-.6-6-1.5-7.8C36.8 1.1 35 0 33.1 0H33c-2.6.1-4.6 1.9-6 5.4-1.3 3.4-1.8 7.1-1.7 10.8-.1 2.5.5 5 1.7 7.2 1 1.8 2.9 2.9 4.9 2.8h.1c2.7 0 4.7-1.9 6-5.6 1-3.2 1.4-6.6 1.2-9.9zm-7.3 10.7c-.7 0-1.4-.4-1.6-1.1-.6-1.4-.8-2.9-.8-4.4-.1-2.8.3-5.5 1.1-8.1.7-1.9 1.5-3 2.3-3 1.8 0 2.1 3.9 2.2 6.3.1 2.5-.2 5-1 7.4-.5 1.4-1.2 2.9-2.2 2.9z"/><path fill="#ff899c" d="M4.9 37l29.3-6.8c.6-.1.9-.6.8-1.2s-.6-.9-1.2-.8L4.1 33H4c-1.1.3-1.8 1.4-1.5 2.5s1.3 1.8 2.4 1.5zM35.5 33.2c-.1-.5-.7-.9-1.2-.7L5.1 39.9h-.2c-1.1.4-1.7 1.5-1.3 2.6s1.5 1.7 2.6 1.3l28.6-9.4c.5-.1.8-.7.7-1.2z"/></g></switch></svg>