<svg xmlns="http://www.w3.org/2000/svg" viewBox="0 0 52.78 49.25"><defs><style>.cls-3{fill:#fff}</style></defs><g><g><path fill="#efb840" stroke="#fafafa" stroke-miterlimit="10" stroke-width="5" d="M44.33 46.75H8.45a5.88 5.88 0 01-5.3-2.59 5.86 5.86 0 01.32-5.89l18.1-32.44c1.18-2.12 2.93-3.33 4.81-3.33s3.62 1.21 4.8 3.32L49.3 38.27a5.84 5.84 0 01.33 5.89 5.86 5.86 0 01-5.3 2.59z"/><path fill="#efb840" d="M44.33 46.75H8.45a5.88 5.88 0 01-5.3-2.59 5.86 5.86 0 01.32-5.89l18.1-32.44c1.18-2.12 2.93-3.33 4.81-3.33s3.62 1.21 4.8 3.32L49.3 38.27a5.84 5.84 0 01.33 5.89 5.86 5.86 0 01-5.3 2.59z"/><path d="M26.6 32.93a1.84 1.84 0 01-1.84-1.85V14.5a1.84 1.84 0 013.68 0v16.58a1.84 1.84 0 01-1.84 1.85zM23.84 39.38a2.76 2.76 0 102.76-2.76 2.76 2.76 0 00-2.76 2.76z" class="cls-3"/></g></g></svg>