<svg xmlns="http://www.w3.org/2000/svg" viewBox="0 0 52 58.5"><switch><g><path fill="none" stroke="#fcfcfc" stroke-linecap="round" stroke-linejoin="round" stroke-width="5" d="M26 2.5h0c1.7 0 3.1 1.4 3.1 3.1v2.6c0 1.7-1.4 3.1-3.1 3.1h0c-1.7 0-3.1-1.4-3.1-3.1V5.6c0-1.7 1.4-3.1 3.1-3.1z"/><path fill="none" stroke="#fcfcfc" stroke-linecap="round" stroke-linejoin="round" stroke-width="5" d="M25.3 6.9h1.4c10.6 0 19.2 8.6 19.2 19.2v9.6c0 1-.8 1.9-1.9 1.9H7.9c-1 0-1.9-.8-1.9-1.9v-9.6c.1-10.6 8.7-19.2 19.3-19.2zM19.2 43.4h13.6v5.8c0 3.7-3 6.8-6.7 6.8 0 0 0 0 0 0h0c-3.8 0-6.8-3-6.8-6.8 0 0 0 0 0 0l-.1-5.8h0z"/><path fill="none" stroke="#fcfcfc" stroke-linecap="round" stroke-linejoin="round" stroke-width="5" d="M47.5 48.5h-43c-1.1 0-2-.9-2-2 0-.3.1-.7.3-1l2-3.3c.4-.6 1-.9 1.7-1h39c.7 0 1.3.4 1.7 1l2 3.3c.6 1 .2 2.2-.7 2.7-.3.2-.7.3-1 .3z"/><path fill="#ff4f65" d="M26 2.5c1.7 0 3.1 1.4 3.1 3.1v2.6c0 1.7-1.4 3.1-3.1 3.1-1.7 0-3.1-1.4-3.1-3.1V5.6c0-1.7 1.4-3.1 3.1-3.1z"/><path fill="#ff4f65" d="M25.3 6.9h1.4c10.6 0 19.2 8.6 19.2 19.2v9.6c0 1-.8 1.9-1.9 1.9H7.9c-1 0-1.9-.8-1.9-1.9v-9.6c.1-10.6 8.7-19.2 19.3-19.2z"/><path fill="#ff899c" d="M19.2 43.4h13.6v5.8c0 3.7-3 6.8-6.7 6.8-3.8 0-6.8-3-6.8-6.8l-.1-5.8z"/><path fill="#ff4f65" d="M47.5 48.5h-43c-1.1 0-2-.9-2-2 0-.3.1-.7.3-1l2-3.3c.4-.6 1-.9 1.7-1h39c.7 0 1.3.4 1.7 1l2 3.3c.6 1 .2 2.2-.7 2.7-.3.2-.7.3-1 .3z"/></g></switch></svg>