<svg xmlns="http://www.w3.org/2000/svg" viewBox="0 0 50.2 57.8"><switch><g><path fill="none" stroke="#fdfdfd" stroke-miterlimit="10" stroke-width="5" d="M45.8 2.5H33c-.7 0-1.4.4-1.7 1L26.9 12c-.6-.1-1.2-.1-1.8-.1s-1.2 0-1.8.1l-4.4-8.5c-.3-.6-1-1-1.7-1H4.4c-1.1 0-1.9.9-1.9 1.9 0 .3.1.6.2.8l6.9 13.1c-8.4 8.7-8.3 22.4.3 30.8s22.3 8.3 30.7-.3c8.3-8.5 8.3-22 0-30.5l6.9-13.1c.5-.9.1-2.1-.8-2.6-.3 0-.6-.1-.9-.1z"/><path fill="#ff899c" d="M28.6 28.1H15.9c-.7 0-1.4-.4-1.7-1L2.7 5.3c-.5-.9-.1-2.1.8-2.6.3-.1.6-.2.9-.2h12.7c.7 0 1.4.4 1.7 1l11.4 21.8c.5.9.1 2.1-.8 2.6-.2.2-.5.2-.8.2z"/><path fill="#ff899c" d="M21.6 28.1h12.7c.7 0 1.4-.4 1.7-1L47.5 5.3c.5-.9.1-2.1-.8-2.6-.3-.1-.6-.2-.9-.2H33c-.7 0-1.4.4-1.7 1L19.9 25.3c-.5.9-.1 2.1.8 2.6.3.2.6.2.9.2z"/><circle cx="25.1" cy="33.6" r="21.7" fill="#ff4661"/><path fill="#fdfdfd" d="M26.5 25l2.3 3.4c.2.3.5.6.9.7l3.9 1.2c.9.3 1.4 1.2 1.2 2.1l-.3.6-2.5 3.1c-.2.3-.4.7-.4 1.1l.1 4.1c0 .9-.7 1.7-1.6 1.7-.2 0-.4 0-.6-.1l-3.9-1.4c-.4-.1-.8-.1-1.1 0l-3.9 1.4c-.9.3-1.8-.1-2.2-1-.1-.2-.1-.4-.1-.6l.1-4.1c0-.4-.1-.8-.4-1.1l-2.5-3.3c-.6-.7-.4-1.8.3-2.4.2-.1.4-.2.5-.3l4-1.2c.4-.1.7-.3.9-.7l2.3-3.3c.5-.8 1.6-1 2.3-.4.4.2.6.3.7.5z"/></g></switch></svg>