<svg xmlns="http://www.w3.org/2000/svg" viewBox="0 0 56.9 56.9"><defs><style>.cls-2{fill:#ffba00}</style></defs><g><g><circle cx="28.45" cy="28.45" r="25.73" fill="none" stroke="#fcfcfc" stroke-linecap="round" stroke-linejoin="round" stroke-width="5.44"/><circle cx="28.45" cy="28.45" r="25.73" class="cls-2"/><path fill="#fcfcfc" d="M37.9 17.32a9.5 9.5 0 014 4.62 18.48 18.48 0 011 3.15 17.78 17.78 0 01.84 3.57 20.69 20.69 0 01.42 3.57c0 1.05.21 2.31.21 3.36a5.59 5.59 0 01-.63 2.52 4.66 4.66 0 01-6.51 2.1 3.89 3.89 0 01-1.68-1.47 7.37 7.37 0 01-1.05-1.68 7 7 0 00-2.5-2.94 7.22 7.22 0 00-7.14 0 8.85 8.85 0 00-2.52 2.94 4.57 4.57 0 01-1.05 1.68 5.66 5.66 0 01-1.68 1.47c-3.57 1.68-6.93-.84-7.14-4.62a18.06 18.06 0 01.21-3.36 23.38 23.38 0 01.42-3.57 21.22 21.22 0 01.63-3.57 18.48 18.48 0 011.05-3.15A11.17 11.17 0 0119 17.32c2.52-1.47 4.83-1.26 7.14-1.05.84 0 1.47.21 2.31.21a8.61 8.61 0 002.31-.21c2.52-.21 4.62-.42 7.14 1.05z"/><circle cx="34.75" cy="22.99" r="1.26" class="cls-2"/><path d="M33.91 25.09a1.26 1.26 0 11-1.26-1.26c.63.17 1.26.63 1.26 1.26z" class="cls-2"/><circle cx="34.75" cy="27.4" r="1.26" class="cls-2"/><path d="M38.11 25.09a1.26 1.26 0 11-1.26-1.26q1.26.32 1.26 1.26z" class="cls-2"/><rect width="1.48" height="8.61" x="20.47" y="20.89" class="cls-2" rx=".74"/><rect width="1.48" height="8.61" x="20.47" y="20.89" class="cls-2" rx=".74" transform="rotate(-90 21.21 25.19)"/></g></g></svg>