<svg xmlns="http://www.w3.org/2000/svg" viewBox="0 0 53.6 53.92"><defs><style>.cls-5{fill:none}.cls-3{stroke-miterlimit:10;fill:#f9fffb;stroke:#fff;stroke-width:3px}.cls-5{stroke:#fcfcfc;stroke-linecap:round;stroke-linejoin:round;stroke-width:5px}</style></defs><g><g><rect width="18.13" height="13.08" x="17.73" y="4.5" fill="none" stroke="#9ce9cd" stroke-miterlimit="10" stroke-width="4" rx="3.38"/><rect width="48.6" height="38.88" x="2.5" y="12.54" fill="#76d5ae" rx="4"/><path d="M2.5 26.43h48.6" class="cls-3"/><path fill="none" stroke="#f9fffb" stroke-miterlimit="10" stroke-width="3" d="M21.54 26.43h10.52v5.78A2.11 2.11 0 0130 34.32h-6.3a2.11 2.11 0 01-2.11-2.11v-5.78h-.05z"/><path d="M32.48 19.58H21.12a5.39 5.39 0 01-5.39-5.38V7.88a5.4 5.4 0 015.39-5.38h11.36a5.4 5.4 0 015.39 5.38v6.32a5.39 5.39 0 01-5.39 5.38zM21.12 6.5a1.38 1.38 0 00-1.39 1.38v6.32a1.38 1.38 0 001.39 1.38h11.36a1.39 1.39 0 001.39-1.38V7.88a1.39 1.39 0 00-1.39-1.38z" class="cls-5"/><rect width="48.6" height="38.88" x="2.5" y="12.54" class="cls-5" rx="4"/><path d="M2.5 26.43h48.6M2.5 24.93h48.6v3H2.5z" class="cls-5"/><path d="M30 35.82h-6.3a3.61 3.61 0 01-3.7-3.61v-7.28h13.56v7.28A3.61 3.61 0 0130 35.82zm-7-7.89v4.28a.61.61 0 00.61.61H30a.61.61 0 00.61-.61v-4.28z" class="cls-5"/><rect width="18.13" height="13.08" x="17.73" y="4.5" fill="none" stroke="#a4f4ab" stroke-miterlimit="10" stroke-width="4" rx="3.38"/><rect width="48.6" height="38.88" x="2.5" y="12.54" fill="#63c772" rx="4"/><path d="M2.5 26.43h48.6" class="cls-3"/><path fill="#a4f4ab" stroke="#f9fffb" stroke-miterlimit="10" stroke-width="3" d="M21.54 26.43h10.52v5.78A2.11 2.11 0 0130 34.32h-6.3a2.11 2.11 0 01-2.11-2.11v-5.78h-.05z"/><path fill="#fff" d="M21.54 7.23h10.52v3.82H21.54z"/></g></g></svg>