<svg xmlns="http://www.w3.org/2000/svg" viewBox="0 0 46.09 49.63"><defs><style>.cls-1{fill:none;stroke:#fcfcfc;stroke-width:5px;stroke-linecap:round;stroke-linejoin:round}.cls-3{fill:#3eabfd}</style></defs><g><g><rect width="11.93" height="30.08" x="16.83" y="7.32" class="cls-1" rx=".88" transform="rotate(45 22.797 22.363)"/><rect width="11.93" height="5.65" x="30.85" y="5.53" class="cls-1" rx=".88" transform="rotate(45 36.82 8.352)"/><path d="M3.8 40.31l2.36-8.69a.86.86 0 011.44-.39l6.33 6.33a.86.86 0 01-.39 1.44l-8.69 2.37a.86.86 0 01-1.05-1.06z" class="cls-1"/><path fill="#63bafd" stroke="#fcfcfc" stroke-linecap="round" stroke-linejoin="round" stroke-width="5" d="M41.82 47.13H4.26a1.76 1.76 0 110-3.52h37.56a1.76 1.76 0 110 3.52z"/><rect width="11.93" height="30.08" x="16.83" y="7.32" class="cls-3" rx=".88" transform="rotate(45 22.797 22.363)"/><rect width="11.93" height="5.65" x="30.85" y="5.53" class="cls-3" rx=".88" transform="rotate(45 36.82 8.352)"/><path fill="#63bafd" d="M3.8 40.31l2.36-8.69a.86.86 0 011.44-.39l6.33 6.33a.86.86 0 01-.39 1.44l-8.69 2.37a.86.86 0 01-1.05-1.06z"/><path fill="none" stroke="#63bafd" stroke-linecap="round" stroke-linejoin="round" stroke-width="3.53" d="M4.26 45.37h37.56"/></g></g></svg>