<svg xmlns="http://www.w3.org/2000/svg" viewBox="0 0 59.32 47.12"><defs><style>.cls-1{fill:none;stroke:#fcfcfc;stroke-linecap:round;stroke-linejoin:round;stroke-width:5px}</style></defs><g><g><path d="M53.06 44.62H6.26a3.76 3.76 0 01-3.76-3.76V6.26A3.76 3.76 0 016.26 2.5h11.37a3.78 3.78 0 012.48.93l5.95 5.21a3.73 3.73 0 002.67 1.12h24.33a3.76 3.76 0 013.76 3.76v27.34a3.76 3.76 0 01-3.76 3.76zM2.5 20.48h54.32" class="cls-1"/><path d="M26.06 8.64l-5.95-5.21a3.78 3.78 0 00-2.48-.93H6.26A3.76 3.76 0 002.5 6.26v3.5h26.23a3.73 3.73 0 01-2.67-1.12z" class="cls-1"/><path fill="#ffba00" d="M53.06 44.62H6.26a3.76 3.76 0 01-3.76-3.76V6.26A3.76 3.76 0 016.26 2.5h11.37a3.78 3.78 0 012.48.93l5.95 5.21a3.73 3.73 0 002.67 1.12h24.33a3.76 3.76 0 013.76 3.76v27.34a3.76 3.76 0 01-3.76 3.76z"/><path fill="none" stroke="#f6f6f6" stroke-miterlimit="10" stroke-width="3" d="M2.5 20.48h54.32"/><path fill="#ffdd3c" d="M26.06 8.64l-5.95-5.21a3.78 3.78 0 00-2.48-.93H6.26A3.76 3.76 0 002.5 6.26v3.5h26.23a3.73 3.73 0 01-2.67-1.12z"/></g></g></svg>