<svg xmlns="http://www.w3.org/2000/svg" viewBox="0 0 53.18 55.78"><g><g><path fill="none" stroke="#fcfcfc" stroke-linecap="round" stroke-linejoin="round" stroke-width="5.31" d="M33.57 37.66c.08-.08 1.07-.88 1.36-1.11a12.42 12.42 0 011.43-1c3.17-2 6.27-1.27 10.79 2.81 2.79 2.51 3.84 4.94 3.19 7.31-.48 1.76-1.67 3.09-3.88 4.84-.14.11-1.42 1.09-1.74 1.35-5.13 4.16-18.92-2-29.85-14.3S-.33 11.17 4.86 7l.68-.57.74-.62c2.61-2.22 4.34-3.19 6.55-3.11S17.09 4.12 19 6.83c4.08 5.74 3.74 8.76-.14 12-.27.24-1.27 1-1.36 1.1-1 .78 1.36 4.84 6.21 10.28s8.79 8.33 9.83 7.49z"/><path fill="#63c772" d="M33.57 37.66c.08-.08 1.07-.88 1.36-1.11a12.42 12.42 0 011.43-1c3.17-2 6.27-1.27 10.79 2.81 2.79 2.51 3.84 4.94 3.19 7.31-.48 1.76-1.67 3.09-3.88 4.84-.14.11-1.42 1.09-1.74 1.35-5.13 4.16-18.92-2-29.85-14.3S-.33 11.17 4.86 7l.68-.57.74-.62c2.61-2.22 4.34-3.19 6.55-3.11S17.09 4.12 19 6.83c4.08 5.74 3.74 8.76-.14 12-.27.24-1.27 1-1.36 1.1-1 .78 1.36 4.84 6.21 10.28s8.79 8.33 9.83 7.49z"/></g></g></svg>