<svg xmlns="http://www.w3.org/2000/svg" viewBox="0 0 50.55 51.36"><defs><style>.cls-2{fill:#ffdd3c}</style></defs><g><g><path fill="none" stroke="#fcfcfc" stroke-linecap="round" stroke-linejoin="round" stroke-width="5" d="M44.14 8.14h-5.75V5.26a2.76 2.76 0 00-5.52 0v2.88H17.68V5.26a2.76 2.76 0 00-5.52 0v2.88H6.41a3.91 3.91 0 00-3.91 3.91V45a3.91 3.91 0 003.91 3.91h37.73A3.91 3.91 0 0048.05 45V12.05a3.91 3.91 0 00-3.91-3.91z"/><rect width="5.52" height="9.78" x="12.16" y="2.04" class="cls-2" rx="2.76"/><rect width="5.52" height="9.78" x="32.87" y="2.04" class="cls-2" rx="2.76"/><rect width="45.55" height="40.72" x="2.5" y="7.68" fill="#ffba00" rx="3.91"/><path fill="#fff" d="M8.82 11.82h32.91a1.69 1.69 0 011.69 1.69v1.76H7.13V13.5a1.69 1.69 0 011.69-1.68z"/><path fill="none" stroke="#fcfcfc" stroke-linecap="round" stroke-linejoin="round" stroke-width="3.69" d="M13.54 32.52l7.6 7.6 15.87-15.88"/></g></g></svg>