<svg xmlns="http://www.w3.org/2000/svg" viewBox="0 0 52.73 51.37"><defs><style>.cls-1{fill:none;stroke:#fff;stroke-linecap:round;stroke-linejoin:round;stroke-width:5px}.cls-3{fill:#63c772}</style></defs><g><g><path d="M9.32 14.44l9.53 5.27 7.27-11a8.76 8.76 0 00-5.1-5c-3.77-1.24-5.49.53-5.49.53z" class="cls-1"/><path d="M18.87 2.51H32.6s3-.2 4 1.2 2.8 4.79 2.8 4.79l3.23-1.87-4.45 10.11-11.24-.93 3.11-1.91-3.17-5.25c-.24-.38-.46-.77-.67-1.17a9.57 9.57 0 00-7.34-4.97zM25.78 45.19l-.15-10.9-13.19-.84a8.75 8.75 0 00-1.79 6.89c.79 3.89 3.19 4.51 3.19 4.51z" class="cls-1"/><path d="M10.68 42.8l-6.8-11.91s-1.67-2.52-.93-4 2.77-4.8 2.77-4.8L2.5 20.16l11-1.18 4.73 10.22L15 27.45l-3 5.36c-.22.39-.45.78-.7 1.16a9.59 9.59 0 00-.62 8.83zM44.46 16.17l-9.34 5.6L41 33.6a8.77 8.77 0 006.86-1.92c3-2.63 2.3-5 2.3-5z" class="cls-1"/><path d="M50 30.43l-6.9 11.86s-1.35 2.71-3 2.84-5.55 0-5.55 0v3.73L28 40l6.45-9.25.09 3.64 6.13-.11h1.35A9.57 9.57 0 0050 30.43z" class="cls-1"/><path fill="#a4f4ab" d="M9.32 14.44l9.53 5.27 7.27-11a8.76 8.76 0 00-5.1-5c-3.77-1.24-5.49.53-5.49.53z"/><path d="M18.87 2.51H32.6s3-.2 4 1.2 2.8 4.79 2.8 4.79l3.23-1.87-4.45 10.11-11.24-.93 3.11-1.91-3.17-5.25c-.24-.38-.46-.77-.67-1.17a9.57 9.57 0 00-7.34-4.97zM25.78 45.19l-.15-10.9-13.19-.84a8.75 8.75 0 00-1.79 6.89c.79 3.89 3.19 4.51 3.19 4.51z" class="cls-3"/><path d="M10.68 42.8l-6.8-11.91s-1.67-2.52-.93-4 2.77-4.8 2.77-4.8L2.5 20.16l11-1.18 4.73 10.22L15 27.45l-3 5.36c-.22.39-.45.78-.7 1.16a9.59 9.59 0 00-.62 8.83zM44.46 16.17l-9.34 5.6L41 33.6a8.77 8.77 0 006.86-1.92c3-2.63 2.3-5 2.3-5z" class="cls-3"/><path d="M50 30.43l-6.9 11.86s-1.35 2.71-3 2.84-5.55 0-5.55 0v3.73L28 40l6.45-9.25.09 3.64 6.13-.11h1.35A9.57 9.57 0 0050 30.43z" class="cls-3"/></g></g></svg>