<svg viewBox="0 0 24 24" fill="none" xmlns="http://www.w3.org/2000/svg">
  <g>
    <path fill-rule="evenodd" clip-rule="evenodd" d="M7.59009 10.375C7.59009 9.06332 8.66299 8 9.98649 8H20.7703C22.0938 8 23.1667 9.06332 23.1667 10.375V15.125C23.1667 16.4367 22.0938 17.5 20.7703 17.5H9.98649C8.66299 17.5 7.59009 16.4367 7.59009 15.125V10.375ZM9.98649 9.78125H20.7703C21.1011 9.78125 21.3694 10.0471 21.3694 10.375V15.125C21.3694 15.4529 21.1011 15.7188 20.7703 15.7188H9.98649C9.65561 15.7188 9.38739 15.4529 9.38739 15.125V10.375C9.38739 10.0471 9.65561 9.78125 9.98649 9.78125Z" fill="currentColor" />
    <path d="M5.61861 13.6406C5.26312 14.511 4.40211 15.125 3.3964 15.125C2.0729 15.125 1 14.0617 1 12.75C1 11.4383 2.0729 10.375 3.3964 10.375C4.40209 10.375 5.26309 10.989 5.61859 11.8594L7.59006 11.8594L7.59004 13.6406L5.61861 13.6406Z" fill="currentColor" />
  </g>
</svg>

