<svg viewBox="0 0 24 24" fill="none" xmlns="http://www.w3.org/2000/svg">
  <g>
    <rect x="9" y="2" width="6" height="4" rx="1" fill="currentColor" />
    <path d="M12 6V9" stroke="currentColor" stroke-width="1.5" stroke-linecap="round" />
    <circle cx="12" cy="9" r="1.5" fill="currentColor" />
    <path d="M12 9L7 12M12 9L17 12" stroke="currentColor" stroke-width="1.5" stroke-linecap="round" />
    <rect x="4" y="12" width="6" height="4" rx="1" fill="currentColor" />
    <rect x="14" y="12" width="6" height="4" rx="1" fill="currentColor" />
    <path d="M7 16V18" stroke="currentColor" stroke-width="1.5" stroke-linecap="round" />
    <circle cx="7" cy="18" r="1.5" fill="currentColor" />
    <path d="M7 18L5 20M7 18L9 20" stroke="currentColor" stroke-width="1.5" stroke-linecap="round" />
    <circle cx="5" cy="20" r="1" fill="currentColor" />
    <circle cx="9" cy="20" r="1" fill="currentColor" />
    <path d="M17 16V18" stroke="currentColor" stroke-width="1.5" stroke-linecap="round" />
    <circle cx="17" cy="18" r="1.5" fill="currentColor" />
    <path d="M17 18L15 20M17 18L19 20" stroke="currentColor" stroke-width="1.5" stroke-linecap="round" />
    <circle cx="15" cy="20" r="1" fill="currentColor" />
    <circle cx="19" cy="20" r="1" fill="currentColor" />
  </g>
</svg>

