<svg viewBox="0 0 24 24" fill="none" xmlns="http://www.w3.org/2000/svg">
  <g>
    <path fill-rule="evenodd" clip-rule="evenodd" d="M5.0592 8.25111H6.99529C7.34441 9.11763 8.18995 9.72889 9.1776 9.72889C10.4773 9.72889 11.531 8.67029 11.531 7.36444C11.531 6.0586 10.4773 5 9.1776 5C8.18995 5 7.34441 5.61126 6.99529 6.47778H5.0592C3.92193 6.47778 3 7.40405 3 8.54667V14.4578C3 15.6004 3.92193 16.5267 5.0592 16.5267H6.79481V17.7933C6.79481 18.901 7.69273 19.7989 8.80036 19.7989H18.9683C20.0759 19.7989 20.9739 18.901 20.9739 17.7933V13.4867C20.9739 12.379 20.0759 11.4811 18.9683 11.4811H8.80036C7.69273 11.4811 6.79481 12.379 6.79481 13.4867V14.7533H5.0592C4.89673 14.7533 4.76503 14.621 4.76503 14.4578V8.54667C4.76503 8.38344 4.89673 8.25111 5.0592 8.25111ZM8.80036 13.2756H18.9683C19.0849 13.2756 19.1794 13.3701 19.1794 13.4867V17.7933C19.1794 17.9099 19.0849 18.0044 18.9683 18.0044H8.80036C8.68377 18.0044 8.58925 17.9099 8.58925 17.7933V13.4867C8.58925 13.3701 8.68377 13.2756 8.80036 13.2756Z" fill="currentColor" />
  </g>
</svg>

