<svg width="20" height="20" viewBox="0 0 24 24" fill="none" xmlns="http://www.w3.org/2000/svg">
  <path d="M12 2C10.3431 2 9 3.34315 9 5C9 6.65685 10.3431 8 12 8C13.6569 8 15 6.65685 15 5C15 3.34315 13.6569 2 12 2Z" fill="#fa8c16" />
  <path d="M7 14C5.34315 14 4 15.3431 4 17C4 18.6569 5.34315 20 7 20C8.65685 20 10 18.6569 10 17C10 15.3431 8.65685 14 7 14Z" fill="#fa8c16" />
  <path d="M14 17C14 15.3431 15.3431 14 17 14C18.6569 14 20 15.3431 20 17C20 18.6569 18.6569 20 17 20C15.3431 20 14 18.6569 14 17Z" fill="#fa8c16" />
</svg>

