<svg width="20" height="20" viewBox="0 0 24 24" fill="none" xmlns="http://www.w3.org/2000/svg">
  <g id="parent_24px">
    <g id="Union">
      <!-- 上方的父节点矩形框 -->
      <path fill-rule="evenodd" clip-rule="evenodd" d="M7.59009 4.375C7.59009 3.06332 8.66299 2 9.98649 2H20.7703C22.0938 2 23.1667 3.06332 23.1667 4.375V9.125C23.1667 10.4367 22.0938 11.5 20.7703 11.5H9.98649C8.66299 11.5 7.59009 10.4367 7.59009 9.125V4.375ZM9.98649 3.78125H20.7703C21.1011 3.78125 21.3694 4.0471 21.3694 4.375V9.125C21.3694 9.4529 21.1011 9.71875 20.7703 9.71875H9.98649C9.65561 9.71875 9.38739 9.4529 9.38739 9.125V4.375C9.38739 4.0471 9.65561 3.78125 9.98649 3.78125Z" fill="currentColor"/>
      <!-- 下方的当前节点圆点 -->
      <circle cx="15.3784" cy="19" r="2.5" fill="currentColor"/>
      <!-- 连接线 -->
      <path d="M15.3784 11.5V16.5" stroke="currentColor" stroke-width="1.8" stroke-linecap="round"/>
    </g>
  </g>
</svg>
